<?xml version="1.0" encoding="utf-8"?>
<!-- Uploaded to: SVG Repo, www.svgrepo.com, Generator: SVG Repo Mixer Tools -->
<svg width="800px" height="800px" viewBox="-9.63 0 77.398 77.398" xmlns="http://www.w3.org/2000/svg">
  <g id="_8" data-name="8" transform="translate(-370.935 -408.146)">
    <path id="Path_48" data-name="Path 48" d="M420.7,443.914l-37.213,37.213a5.692,5.692,0,0,1-8.05,0l-.081-.082a5.692,5.692,0,0,1,0-8.05l37.131-37.131a7.8,7.8,0,0,0,0-11.026l-.112-.111a7.8,7.8,0,0,0-11.025,0l-3.733,3.733a5.692,5.692,0,0,1-8.05,0l-.082-.082a5.692,5.692,0,0,1,0-8.05l3.814-3.814a19.182,19.182,0,0,1,27.127,0l.274.274A19.182,19.182,0,0,1,420.7,443.914Z" fill="#ee6159"/>
    <g id="Group_23" data-name="Group 23">
      <line id="Line_14" data-name="Line 14" x2="16.087" transform="translate(380.01 468.338)" fill="#ffffff"/>
      <path id="Path_49" data-name="Path 49" d="M396.1,471.088H380.01a2.75,2.75,0,0,1,0-5.5H396.1a2.75,2.75,0,1,1,0,5.5Z" fill="#ffffff"/>
    </g>
    <g id="Group_24" data-name="Group 24">
      <line id="Line_15" data-name="Line 15" x2="16.087" transform="translate(394.927 453.42)" fill="#d0d0dc"/>
      <path id="Path_50" data-name="Path 50" d="M411.014,456.171H394.927a2.75,2.75,0,0,1,0-5.5h16.087a2.75,2.75,0,0,1,0,5.5Z" fill="#151515"/>
    </g>
    <g id="Group_25" data-name="Group 25">
      <line id="Line_16" data-name="Line 16" x2="16.087" transform="translate(394.927 453.42)" fill="#ffffff"/>
      <path id="Path_51" data-name="Path 51" d="M411.014,456.171H394.927a2.75,2.75,0,0,1,0-5.5h16.087a2.75,2.75,0,0,1,0,5.5Z" fill="#ffffff"/>
    </g>
    <g id="Group_26" data-name="Group 26">
      <line id="Line_17" data-name="Line 17" x2="14.656" transform="translate(409.844 438.503)" fill="#ffffff"/>
      <path id="Path_52" data-name="Path 52" d="M424.5,441.253H409.844a2.75,2.75,0,0,1,0-5.5H424.5a2.75,2.75,0,0,1,0,5.5Z" fill="#ffffff"/>
    </g>
    <g id="Group_27" data-name="Group 27">
      <line id="Line_18" data-name="Line 18" y1="14.344" transform="translate(398.733 412.736)" fill="#ffffff"/>
      <path id="Path_53" data-name="Path 53" d="M398.733,429.829a2.75,2.75,0,0,1-2.75-2.75V412.735a2.749,2.749,0,1,1,5.5,0v14.344A2.75,2.75,0,0,1,398.733,429.829Z" fill="#ffffff"/>
    </g>
    <g id="Group_28" data-name="Group 28">
      <line id="Line_19" data-name="Line 19" y1="8.132" x2="8.132" transform="translate(412.372 416.595)" fill="#ffffff"/>
      <path id="Path_54" data-name="Path 54" d="M412.372,427.477a2.75,2.75,0,0,1-1.944-4.695l8.132-8.132a2.75,2.75,0,0,1,3.888,3.889l-8.132,8.132A2.74,2.74,0,0,1,412.372,427.477Z" fill="#ffffff"/>
    </g>
    <path id="Path_55" data-name="Path 55" d="M379.459,485.544a8.383,8.383,0,0,1-5.969-2.473l-.088-.088a8.44,8.44,0,0,1,.006-11.932l37.131-37.131a5.053,5.053,0,0,0,0-7.138l-.111-.111a5.046,5.046,0,0,0-7.137,0l-3.732,3.732a8.442,8.442,0,0,1-11.94,0l-.093-.093a8.441,8.441,0,0,1,.012-11.927l3.814-3.815a21.932,21.932,0,0,1,31.015,0l.278.278a21.932,21.932,0,0,1,0,31.011l-37.212,37.213A8.387,8.387,0,0,1,379.459,485.544Zm27.4-65.851a10.48,10.48,0,0,1,7.457,3.088l.112.113a10.559,10.559,0,0,1,0,14.915L377.3,474.939a2.943,2.943,0,0,0,0,4.162l.087.087a3.019,3.019,0,0,0,4.156,0l37.212-37.213a16.434,16.434,0,0,0,0-23.238l-.277-.277a16.432,16.432,0,0,0-23.234,0l-3.814,3.814a2.943,2.943,0,0,0,0,4.162l.093.093a3.022,3.022,0,0,0,4.149-.011l3.733-3.734A10.48,10.48,0,0,1,406.859,419.693Z" fill="#151515"/>
  </g>
</svg>