<?xml version="1.0" encoding="iso-8859-1"?>
<!-- Uploaded to: SVG Repo, www.svgrepo.com, Generator: SVG Repo Mixer Tools -->
<svg height="800px" width="800px" version="1.1" id="Layer_1" xmlns="http://www.w3.org/2000/svg" xmlns:xlink="http://www.w3.org/1999/xlink" 
	 viewBox="0 0 511.999 511.999" xml:space="preserve">
<path style="fill:#0F6D38;" d="M305.073,106.832l-19.824,24.741c-0.994,1.241-2.496,1.962-4.087,1.962
	c-1.59,0-3.092-0.721-4.087-1.962l-21.078-26.307l-21.075,26.306c-0.994,1.241-2.497,1.963-4.087,1.963s-3.093-0.723-4.087-1.963
	l-19.819-24.739c-5.276,17.658-7.968,34.653-9.099,43.189h116.343C313.042,141.487,310.349,124.492,305.073,106.832z"/>
<path style="fill:#997630;" d="M286.247,204.149h-60.493c5.68,3.483,16.42,6.612,30.248,6.612
	C269.828,210.761,280.567,207.632,286.247,204.149z"/>
<path style="fill:#129A58;" d="M251.91,93.617c0.994-1.241,2.497-1.963,4.087-1.963c1.588,0,3.092,0.722,4.087,1.962l21.078,26.306
	l19.976-24.93c-8.879-24.054-23.043-46.09-45.138-46.09s-36.259,22.035-45.138,46.089l19.973,24.931L251.91,93.617z"/>
<path style="fill:#EFD18D;" d="M311.409,246.952c0-2.892,2.345-5.237,5.237-5.237h0.001h0.001h8.729
	c6.859-0.58,11.956-3.134,15.579-7.806c6.078-7.84,6.653-19.792,6.298-27.272c-19.42,9.653-25.891,21.722-25.961,21.855
	c-1.115,2.139-3.553,3.241-5.89,2.666c-2.344-0.574-3.992-2.674-3.992-5.087v-21.923h-11.264
	c-4.714,11.238-24.533,17.086-44.147,17.086s-39.435-5.846-44.149-17.086h-11.264v21.923c0,2.412-1.648,4.513-3.99,5.087
	c-2.34,0.576-4.775-0.527-5.89-2.665c-0.059-0.109-6.767-12.268-25.962-21.849c-0.355,7.477,0.221,19.426,6.297,27.265
	c3.621,4.671,8.72,7.227,15.58,7.806h8.729h0.001h0.001c2.892,0,5.237,2.345,5.237,5.237c0,28.766,44.59,54.649,55.406,60.503
	C266.81,301.594,311.409,275.673,311.409,246.952z M283.234,225.965c0.979-0.965,2.327-1.524,3.712-1.524
	c1.373,0,2.723,0.559,3.701,1.524c0.978,0.978,1.536,2.327,1.536,3.712c0,1.373-0.559,2.723-1.536,3.701
	c-0.978,0.978-2.327,1.536-3.701,1.536c-1.385,0-2.735-0.559-3.712-1.536c-0.966-0.978-1.524-2.327-1.524-3.701
	C281.711,228.293,282.268,226.943,283.234,225.965z M256,237.489c9.848,0,17.861,8.012,17.861,17.861
	c0,2.892-2.345,5.237-5.237,5.237s-5.237-2.345-5.237-5.237c0-4.073-3.314-7.387-7.387-7.387s-7.387,3.314-7.387,7.387
	c0,2.892-2.345,5.237-5.237,5.237s-5.237-2.345-5.237-5.237C238.139,245.502,246.151,237.489,256,237.489z M228.762,233.378
	c-0.978,0.965-2.327,1.523-3.701,1.523c-1.385,0-2.735-0.559-3.712-1.523c-0.966-0.978-1.536-2.327-1.536-3.701
	c0-1.385,0.57-2.735,1.536-3.712c0.978-0.965,2.327-1.524,3.712-1.524c1.373,0,2.723,0.559,3.701,1.524
	c0.978,0.978,1.536,2.327,1.536,3.712C230.298,231.051,229.74,232.4,228.762,233.378z M231.41,272.492
	c0-2.892,2.345-5.237,5.237-5.237c2.664,0,4.863,1.99,5.194,4.563c1.249,1.209,6.355,3.256,14.161,3.256
	c7.805,0,12.91-2.047,14.159-3.256c0.329-2.574,2.53-4.564,5.194-4.564c2.892,0,5.237,2.345,5.237,5.237
	c0,8.971-12.746,13.057-24.589,13.057S231.41,281.461,231.41,272.492z"/>
<path style="fill:#E1B658;" d="M256,38.428c7.707,0,13.977-6.27,13.977-13.977S263.707,10.473,256,10.473
	c-7.706,0-13.976,6.27-13.976,13.977S248.294,38.428,256,38.428z"/>
<path style="fill:#FF5240;" d="M314.851,193.676c8.618,0,15.631-7.442,15.631-16.591c0-9.148-7.011-16.59-15.631-16.59H197.153
	c-8.621,0-15.634,7.442-15.634,16.59c0,9.148,7.014,16.591,15.634,16.591H314.851z"/>
<path style="fill:#129A58;" d="M250.763,472.813v-13.112c-8.466-2.309-14.716-10.045-14.716-19.233
	c0-9.189,6.25-16.924,14.716-19.233v-7.905l-19.503-27.97c-20.591,4.142-41.277,19.509-41.495,19.671
	c-1.847,1.385-4.385,1.398-6.246,0.028c-1.86-1.369-2.604-3.794-1.832-5.97c5.546-15.614,10.057-25.894,12.991-31.979
	c-12.211-0.154-32.439,2.981-42.217,4.771c-4.35,7.423-6.972,15.864-6.972,25.438v104.207h20.349v-88.98
	c0-2.892,2.345-5.237,5.237-5.237s5.237,2.345,5.237,5.237v88.979h62.135c-1.53-2.822-2.401-6.051-2.401-9.481
	C236.047,482.858,242.297,475.122,250.763,472.813z"/>
<path style="fill:#E1B658;" d="M246.52,440.468c0,5.227,4.253,9.481,9.482,9.481c5.226,0,9.48-4.253,9.48-9.481
	c0-5.227-4.252-9.481-9.48-9.481C250.774,430.987,246.52,435.24,246.52,440.468z"/>
<path style="fill:#FF5240;" d="M204.165,357.649c1.612,0.41,2.934,1.561,3.561,3.101c0.627,1.541,0.484,3.287-0.383,4.706
	c-0.045,0.074-3.987,6.656-10.273,22.455c9.431-5.373,22.62-11.571,35.844-13.46c1.96-0.28,3.905,0.567,5.037,2.189l18.054,25.891
	l18.054-25.891c1.131-1.623,3.083-2.471,5.037-2.189c13.221,1.89,26.41,8.088,35.841,13.461
	c-6.285-15.797-10.23-22.382-10.279-22.463c-0.861-1.42-1-3.168-0.371-4.704s1.946-2.688,3.555-3.097
	c9.204-2.339,28.915-0.013,42.265,2.033c-20.825-21.306-55.71-31.492-69.653-34.866v3.937c0,13.482-10.969,24.451-24.451,24.451
	c-13.482,0-24.45-10.969-24.45-24.451v-3.936c-13.934,3.37-48.828,13.555-69.654,34.866
	C175.244,357.637,194.957,355.31,204.165,357.649z"/>
<path style="fill:#129A58;" d="M330.311,399.091c0.774,2.177,0.028,4.604-1.833,5.972c-1.862,1.369-4.399,1.355-6.247-0.033
	c-0.215-0.162-20.901-15.529-41.488-19.67l-19.507,27.977v7.897c8.466,2.308,14.717,10.045,14.717,19.234
	s-6.251,16.926-14.717,19.234v13.11c8.466,2.308,14.717,10.044,14.717,19.234c0,3.429-0.87,6.659-2.4,9.481h62.134v-88.979
	c0-2.892,2.345-5.237,5.237-5.237c2.892,0,5.237,2.345,5.237,5.237v88.979h20.349V397.32c0-9.574-2.622-18.014-6.973-25.438
	c-9.781-1.789-30.03-4.921-42.215-4.771C320.257,373.197,324.768,383.476,330.311,399.091z"/>
<path style="fill:#E1B658;" d="M256.002,482.565c-5.229,0-9.482,4.253-9.482,9.481c0,5.227,4.253,9.481,9.482,9.481
	c5.226,0,9.48-4.253,9.48-9.481C265.482,486.818,261.229,482.565,256.002,482.565z"/>
<path style="fill:#EFD18D;" d="M253.662,318.059c-0.67-0.334-5.238-2.643-11.638-6.549v17.242c0,7.707,6.27,13.977,13.976,13.977
	c7.707,0,13.977-6.27,13.977-13.977v-17.244c-6.403,3.908-10.971,6.218-11.642,6.552c-0.735,0.367-1.536,0.55-2.337,0.55
	C255.198,318.609,254.399,318.426,253.662,318.059z"/>
<g>
	<path style="fill:#4F413B;" d="M280.592,272.492c0-2.892-2.345-5.237-5.237-5.237c-2.664,0-4.864,1.99-5.194,4.564
		c-1.249,1.209-6.354,3.256-14.159,3.256c-7.806,0-12.914-2.047-14.161-3.256c-0.33-2.574-2.53-4.563-5.194-4.563
		c-2.892,0-5.237,2.345-5.237,5.237c0,8.971,12.748,13.057,24.593,13.057C267.845,285.547,280.592,281.461,280.592,272.492z"/>
	<path style="fill:#4F413B;" d="M225.061,224.441c-1.385,0-2.735,0.559-3.712,1.524c-0.966,0.978-1.536,2.327-1.536,3.712
		c0,1.373,0.57,2.723,1.536,3.701c0.978,0.965,2.327,1.523,3.712,1.523c1.373,0,2.723-0.559,3.701-1.523
		c0.978-0.978,1.536-2.327,1.536-3.701c0-1.385-0.559-2.735-1.536-3.712C227.785,224.999,226.435,224.441,225.061,224.441z"/>
	<path style="fill:#4F413B;" d="M286.948,234.914c1.373,0,2.723-0.559,3.701-1.536c0.978-0.978,1.536-2.327,1.536-3.701
		c0-1.385-0.559-2.735-1.536-3.712c-0.978-0.965-2.327-1.524-3.701-1.524c-1.385,0-2.735,0.559-3.712,1.524
		c-0.966,0.978-1.524,2.327-1.524,3.712c0,1.373,0.559,2.723,1.524,3.701C284.213,234.356,285.562,234.914,286.948,234.914z"/>
	<path style="fill:#4F413B;" d="M243.376,260.587c2.892,0,5.237-2.345,5.237-5.237c0-4.073,3.314-7.387,7.387-7.387
		s7.387,3.314,7.387,7.387c0,2.892,2.345,5.237,5.237,5.237s5.237-2.345,5.237-5.237c0-9.849-8.012-17.861-17.861-17.861
		c-9.849,0-17.861,8.012-17.861,17.861C238.139,258.243,240.484,260.587,243.376,260.587z"/>
	<path style="fill:#4F413B;" d="M325.893,330.035c-18.807-9.4-37.374-14.193-45.442-15.995v-9.375
		c17.008-11.89,38.062-30.701,41.065-52.476c0,0,4.348-0.005,4.485-0.016c9.944-0.782,17.77-4.779,23.258-11.879
		c12.195-15.772,7.832-41.254,7.641-42.33c-0.277-1.556-1.241-2.903-2.624-3.667c-1.384-0.765-3.038-0.863-4.501-0.269
		c-12.974,5.266-21.952,11.854-27.89,17.482v-8.366c10.987-3.192,19.071-13.662,19.071-26.058c0-11.19-6.584-20.817-15.949-24.931
		c-1.762-15.632-12.383-92.649-52.031-110.168c4.598-4.442,7.475-10.65,7.475-17.536C280.451,10.969,269.482,0,256,0
		s-24.45,10.969-24.45,24.451c0,6.886,2.878,13.093,7.477,17.534c-39.654,17.515-50.274,94.541-52.033,110.17
		c-9.363,4.116-15.949,13.741-15.949,24.93c0,12.396,8.083,22.863,19.071,26.058v8.367c-5.937-5.629-14.914-12.217-27.89-17.482
		c-1.464-0.595-3.118-0.496-4.501,0.268s-2.347,2.111-2.624,3.667c-0.192,1.078-4.555,26.558,7.637,42.33
		c5.489,7.101,13.315,11.098,23.26,11.88c0.136,0.01,4.485,0.016,4.485,0.016c3.004,21.777,24.057,40.589,41.065,52.478v9.373
		c-8.074,1.805-26.642,6.599-45.442,15.995c-33.425,16.707-51.092,39.974-51.092,67.285v109.444c0,2.892,2.345,5.237,5.237,5.237
		h231.494c2.892,0,5.237-2.345,5.237-5.237V397.318C376.984,370.007,359.317,346.741,325.893,330.035z M256,10.473
		c7.707,0,13.977,6.27,13.977,13.977S263.707,38.428,256,38.428c-7.706,0-13.976-6.27-13.976-13.977S248.294,10.473,256,10.473z
		 M256,48.902c22.095,0,36.259,22.036,45.138,46.09l-19.976,24.93l-21.078-26.306c-0.994-1.241-2.497-1.962-4.087-1.962
		s-3.093,0.723-4.087,1.963l-21.075,26.305L210.862,94.99C219.741,70.938,233.905,48.902,256,48.902z M206.929,106.832
		l19.819,24.739c0.995,1.241,2.497,1.963,4.087,1.963s3.093-0.723,4.087-1.963l21.075-26.306l21.078,26.307
		c0.995,1.241,2.497,1.962,4.087,1.962s3.092-0.721,4.087-1.962l19.824-24.741c5.276,17.658,7.969,34.654,9.099,43.189H197.828
		C198.959,141.485,201.651,124.491,206.929,106.832z M181.519,177.085c0-9.148,7.014-16.59,15.634-16.59h117.698
		c8.618,0,15.631,7.442,15.631,16.59c0,9.148-7.011,16.591-15.631,16.591H197.153C188.533,193.676,181.519,186.234,181.519,177.085z
		 M286.247,204.149c-5.68,3.483-16.419,6.612-30.245,6.612c-13.827,0-24.567-3.128-30.248-6.612H286.247z M200.591,246.952
		c0-2.892-2.345-5.237-5.237-5.237h-0.001h-0.001h-8.729c-6.86-0.581-11.958-3.135-15.58-7.806
		c-6.076-7.839-6.652-19.788-6.297-27.265c19.197,9.582,25.904,21.74,25.962,21.849c1.115,2.139,3.549,3.241,5.89,2.665
		c2.343-0.574,3.99-2.674,3.99-5.087v-21.923h11.264c4.714,11.238,24.535,17.086,44.149,17.086c19.613,0,39.432-5.847,44.147-17.086
		h11.264v21.923c0,2.412,1.648,4.513,3.992,5.087c2.338,0.575,4.776-0.527,5.89-2.666c0.07-0.134,6.541-12.202,25.961-21.855
		c0.355,7.478-0.22,19.432-6.298,27.272c-3.621,4.672-8.719,7.227-15.579,7.806h-8.729h-0.001h-0.001
		c-2.892,0-5.237,2.345-5.237,5.237c0,28.722-44.599,54.642-55.413,60.503C245.181,301.601,200.591,275.719,200.591,246.952z
		 M269.977,311.509v17.244c0,7.707-6.27,13.977-13.977,13.977c-7.706,0-13.976-6.27-13.976-13.977v-17.242
		c6.4,3.907,10.968,6.215,11.638,6.549c0.735,0.367,1.536,0.55,2.337,0.55s1.601-0.184,2.337-0.55
		C259.006,317.725,263.575,315.416,269.977,311.509z M231.55,324.817v3.936c0,13.482,10.968,24.451,24.45,24.451
		c13.482,0,24.451-10.969,24.451-24.451v-3.937c13.941,3.374,48.828,13.56,69.653,34.866c-13.351-2.046-33.061-4.372-42.265-2.033
		c-1.609,0.408-2.927,1.559-3.555,3.097c-0.628,1.536-0.49,3.284,0.371,4.704c0.049,0.081,3.994,6.666,10.279,22.463
		c-9.431-5.373-22.62-11.571-35.841-13.461c-1.954-0.282-3.905,0.566-5.037,2.189l-18.054,25.891l-18.054-25.891
		c-1.131-1.622-3.077-2.469-5.037-2.189c-13.223,1.89-26.413,8.087-35.844,13.46c6.286-15.799,10.229-22.381,10.273-22.455
		c0.868-1.419,1.01-3.166,0.383-4.706c-0.627-1.541-1.949-2.693-3.561-3.101c-9.206-2.339-28.921-0.012-42.268,2.034
		C182.722,338.371,217.616,328.187,231.55,324.817z M265.482,440.468c0,5.227-4.252,9.481-9.48,9.481
		c-5.229,0-9.482-4.253-9.482-9.481c0-5.227,4.253-9.481,9.482-9.481C261.229,430.987,265.482,435.24,265.482,440.468z
		 M238.448,501.527h-62.135v-88.979c0-2.892-2.345-5.237-5.237-5.237s-5.237,2.345-5.237,5.237v88.979H145.49V397.32
		c0-9.574,2.622-18.014,6.972-25.438c9.779-1.789,30.006-4.925,42.217-4.771c-2.934,6.085-7.444,16.364-12.991,31.979
		c-0.774,2.176-0.028,4.601,1.832,5.97c1.861,1.37,4.399,1.357,6.246-0.028c0.216-0.163,20.904-15.531,41.495-19.671l19.503,27.97
		v7.905c-8.466,2.309-14.716,10.045-14.716,19.233s6.25,16.924,14.716,19.233v13.112c-8.466,2.309-14.716,10.045-14.716,19.233
		C236.047,495.475,236.917,498.705,238.448,501.527z M256.002,501.527c-5.229,0-9.482-4.253-9.482-9.481
		c0-5.227,4.253-9.481,9.482-9.481c5.226,0,9.48,4.253,9.48,9.481C265.482,497.273,261.229,501.527,256.002,501.527z
		 M366.511,397.32v104.207h-20.349v-88.979c0-2.892-2.345-5.237-5.237-5.237c-2.892,0-5.237,2.345-5.237,5.237v88.979h-62.134
		c1.529-2.822,2.4-6.051,2.4-9.481c0-9.189-6.251-16.925-14.717-19.234v-13.11c8.466-2.308,14.717-10.045,14.717-19.234
		c0-9.19-6.251-16.926-14.717-19.234v-7.897l19.507-27.977c20.586,4.142,41.273,19.508,41.488,19.67
		c1.848,1.387,4.386,1.401,6.247,0.033c1.862-1.369,2.607-3.795,1.833-5.972c-5.544-15.615-10.056-25.894-12.989-31.979
		c12.186-0.151,32.434,2.981,42.215,4.771C363.889,379.305,366.511,387.747,366.511,397.32z"/>
</g>
</svg>