<?xml version="1.0" encoding="utf-8"?>
<!-- Generator: Adobe Illustrator 28.0.0, SVG Export Plug-In . SVG Version: 6.00 Build 0)  -->
<svg version="1.1" id="Layer_1" xmlns="http://www.w3.org/2000/svg" xmlns:xlink="http://www.w3.org/1999/xlink" x="0px" y="0px"
	 viewBox="0 0 24 24" style="enable-background:new 0 0 24 24;" xml:space="preserve">
<style type="text/css">
	.st0{fill:#FFFFFF;}
</style>
<path class="st0" d="M19.8,22.6L1.4,4.2l1.4-1.4l18.4,18.4L19.8,22.6z M14,11.1l-2-2V3h6v4h-4V11.1z M10,21c-1.1,0-2-0.4-2.8-1.2
	C6.4,19,6,18.1,6,17s0.4-2,1.2-2.8C8,13.4,8.9,13,10,13c0.4,0,0.7,0,1.1,0.1s0.6,0.2,0.9,0.4V12l2,2v3c0,1.1-0.4,2-1.2,2.8
	C12,20.6,11.1,21,10,21z"/>
</svg>
