<svg xmlns="http://www.w3.org/2000/svg" width="638" height="167" fill="none" viewBox="0 0 638 167">
  <g filter="url(#a)">
    <path fill="#00A44B" d="M23 29a6 6 0 0 1 6-6v-8c-7.732 0-14 6.268-14 14h8Zm0 60V29h-8v60h8Zm6 6a6 6 0 0 1-6-6h-8c0 7.732 6.268 14 14 14v-8Zm241.94 0H29v8h241.94v-8ZM319 144c-19.882 0-36-16.118-36-36h-8c0 24.301 19.699 44 44 44v-8Zm36-36c0 19.882-16.118 36-36 36v8c24.301 0 44-19.699 44-44h-8Zm254-13H367.06v8H609v-8Zm6-6a6 6 0 0 1-6 6v8c7.732 0 14-6.268 14-14h-8Zm0-60v60h8V29h-8Zm-6-6a6 6 0 0 1 6 6h8c0-7.732-6.268-14-14-14v8ZM29 23h580v-8H29v8Zm334 85c0-3.027 2.172-5 4.06-5v-8c-7.402 0-12.06 6.737-12.06 13h8Zm-92.06-5c1.888 0 4.06 1.973 4.06 5h8c0-6.263-4.658-13-12.06-13v8Z"/>
  </g>
  <defs>
    <filter id="a" width="638" height="167" x="0" y="0" color-interpolation-filters="sRGB" filterUnits="userSpaceOnUse">
      <feFlood flood-opacity="0" result="BackgroundImageFix"/>
      <feBlend in="SourceGraphic" in2="BackgroundImageFix" result="shape"/>
      <feGaussianBlur result="effect1_foregroundBlur_123_171" stdDeviation="7.5"/>
    </filter>
  </defs>
</svg>
