<svg xmlns="http://www.w3.org/2000/svg" width="610" height="139" fill="none" viewBox="0 0 610 139">
  <mask id="c" width="610" height="139" x="0" y="0" fill="#000" maskUnits="userSpaceOnUse">
    <path fill="#fff" d="M0 0h610v139H0z"/>
    <path fill-rule="evenodd" d="M15 5C9.477 5 5 9.477 5 15v60c0 5.523 4.477 10 10 10h241.94c4.645 0 8.06 4.355 8.06 9 0 22.091 17.909 40 40 40s40-17.909 40-40c0-4.645 3.415-9 8.06-9H595c5.523 0 10-4.477 10-10V15c0-5.523-4.477-10-10-10H15Z" clip-rule="evenodd"/>
  </mask>
  <g filter="url(#a)">
    <path fill="url(#b)" fill-rule="evenodd" d="M15 5C9.477 5 5 9.477 5 15v60c0 5.523 4.477 10 10 10h241.94c4.645 0 8.06 4.355 8.06 9 0 22.091 17.909 40 40 40s40-17.909 40-40c0-4.645 3.415-9 8.06-9H595c5.523 0 10-4.477 10-10V15c0-5.523-4.477-10-10-10H15Z" clip-rule="evenodd"/>
  </g>
  <path fill="#fff" d="M2.5 15v5h5v-5h-5Zm0 15v10h5V30h-5Zm0 20v10h5V50h-5Zm0 20v5h5v-5h-5Zm0 5c0 1.69.337 3.308.95 4.785l4.618-1.915A7.47 7.47 0 0 1 7.5 75h-5Zm7.714 11.55A12.47 12.47 0 0 0 15 87.5v-5a7.472 7.472 0 0 1-2.87-.568l-1.916 4.618ZM15 87.5h5.04v-5H15v5Zm15.121 0h10.081v-5h-10.08v5Zm20.162 0h10.08v-5h-10.08v5Zm20.162 0h10.08v-5h-10.08v5Zm20.161 0h10.081v-5h-10.08v5Zm20.162 0h10.081v-5h-10.081v5Zm20.162 0h10.08v-5h-10.08v5Zm20.161 0h10.081v-5h-10.081v5Zm20.162 0h10.081v-5h-10.081v5Zm20.162 0h10.08v-5h-10.08v5Zm20.161 0h10.081v-5h-10.081v5Zm20.162 0h10.081v-5h-10.081v5Zm20.162 0h5.04v-5h-5.04v5Zm5.04 0c.765 0 1.474.178 2.119.498l2.222-4.479a9.722 9.722 0 0 0-4.341-1.019v5Zm5.132 4.065c.279.774.428 1.602.428 2.435h5a12.21 12.21 0 0 0-.723-4.127l-4.705 1.692ZM262.5 94c0 1.88.122 3.73.359 5.548l4.958-.647A37.892 37.892 0 0 1 267.5 94h-5Zm3.226 16.269a42.434 42.434 0 0 0 5.556 9.606l3.964-3.047a37.452 37.452 0 0 1-4.901-8.474l-4.619 1.915Zm13.399 17.449a42.434 42.434 0 0 0 9.606 5.556l1.915-4.619a37.452 37.452 0 0 1-8.474-4.901l-3.047 3.964Zm20.327 8.423c1.817.237 3.669.359 5.548.359v-5c-1.662 0-3.298-.108-4.901-.317l-.647 4.958Zm5.548.359c1.879 0 3.731-.122 5.548-.359l-.647-4.958a37.896 37.896 0 0 1-4.901.317v5Zm16.269-3.226a42.434 42.434 0 0 0 9.606-5.556l-3.047-3.964a37.452 37.452 0 0 1-8.474 4.901l1.915 4.619Zm17.449-13.399a42.434 42.434 0 0 0 5.556-9.606l-4.619-1.915a37.452 37.452 0 0 1-4.901 8.474l3.964 3.047Zm8.423-20.327c.237-1.817.359-3.669.359-5.548h-5c0 1.662-.108 3.298-.317 4.901l4.958.647ZM347.5 94c0-.834.149-1.66.428-2.435l-4.705-1.692A12.21 12.21 0 0 0 342.5 94h5Zm3.441-6.002a4.723 4.723 0 0 1 2.119-.498v-5c-1.566 0-3.034.37-4.341 1.02l2.222 4.478Zm2.119-.498h5.04v-5h-5.04v5Zm15.121 0h10.081v-5h-10.081v5Zm20.162 0h10.081v-5h-10.081v5Zm20.162 0h10.08v-5h-10.08v5Zm20.161 0h10.081v-5h-10.081v5Zm20.162 0h10.081v-5h-10.081v5Zm20.162 0h10.08v-5h-10.08v5Zm20.161 0h10.081v-5h-10.081v5Zm20.162 0h10.081v-5h-10.081v5Zm20.162 0h10.08v-5h-10.08v5Zm20.161 0h10.081v-5h-10.081v5Zm20.162 0h10.081v-5h-10.081v5Zm20.162 0H595v-5h-5.04v5Zm5.04 0c1.69 0 3.308-.337 4.786-.95l-1.916-4.618a7.469 7.469 0 0 1-2.87.568v5Zm11.551-7.715c.612-1.477.949-3.095.949-4.785h-5c0 1.022-.203 1.99-.568 2.87l4.619 1.915ZM607.5 75v-5h-5v5h5Zm0-15V50h-5v10h5Zm0-20V30h-5v10h5Zm0-20v-5h-5v5h5Zm0-5c0-1.69-.337-3.308-.95-4.786l-4.618 1.916c.365.88.568 1.848.568 2.87h5Zm-7.714-11.55A12.476 12.476 0 0 0 595 2.5v5c1.022 0 1.989.203 2.87.568l1.916-4.619ZM595 2.5h-5v5h5v-5Zm-15 0h-10v5h10v-5Zm-20 0h-10v5h10v-5Zm-20 0h-10v5h10v-5Zm-20 0h-10v5h10v-5Zm-20 0h-10v5h10v-5Zm-20 0h-10v5h10v-5Zm-20 0h-10v5h10v-5Zm-20 0h-10v5h10v-5Zm-20 0h-10v5h10v-5Zm-20 0h-10v5h10v-5Zm-20 0h-10v5h10v-5Zm-20 0h-10v5h10v-5Zm-20 0h-10v5h10v-5Zm-20 0h-10v5h10v-5Zm-20 0h-10v5h10v-5Zm-20 0h-10v5h10v-5Zm-20 0h-10v5h10v-5Zm-20 0h-10v5h10v-5Zm-20 0h-10v5h10v-5Zm-20 0h-10v5h10v-5Zm-20 0h-10v5h10v-5Zm-20 0h-10v5h10v-5Zm-20 0h-10v5h10v-5Zm-20 0h-10v5h10v-5Zm-20 0H90v5h10v-5Zm-20 0H70v5h10v-5Zm-20 0H50v5h10v-5Zm-20 0H30v5h10v-5Zm-20 0h-5v5h5v-5Zm-5 0c-1.69 0-3.308.337-4.786.95l1.916 4.618A7.47 7.47 0 0 1 15 7.5v-5ZM3.45 10.214A12.47 12.47 0 0 0 2.5 15h5c0-1.021.203-1.99.568-2.87L3.45 10.214ZM0 15v5h10v-5H0Zm0 15v10h10V30H0Zm0 20v10h10V50H0Zm0 20v5h10v-5H0Zm0 5c0 2.025.404 3.968 1.14 5.743l9.237-3.83A4.97 4.97 0 0 1 10 75H0Zm9.257 13.86A14.97 14.97 0 0 0 15 90V80a4.97 4.97 0 0 1-1.913-.377l-3.83 9.237ZM15 90h5.04V80H15v10Zm15.121 0h10.081V80h-10.08v10Zm20.162 0h10.08V80h-10.08v10Zm20.162 0h10.08V80h-10.08v10Zm20.161 0h10.081V80h-10.08v10Zm20.162 0h10.081V80h-10.081v10Zm20.162 0h10.08V80h-10.08v10Zm20.161 0h10.081V80h-10.081v10Zm20.162 0h10.081V80h-10.081v10Zm20.162 0h10.08V80h-10.08v10Zm20.161 0h10.081V80h-10.081v10Zm20.162 0h10.081V80h-10.081v10Zm20.162 0h5.04V80h-5.04v10Zm5.04 0c.364 0 .694.082 1.008.238l4.444-8.959A12.223 12.223 0 0 0 256.94 80v10Zm2.78 2.41c.183.512.28 1.053.28 1.59h10c0-1.724-.308-3.409-.87-4.973l-9.41 3.384ZM260 94c0 1.987.129 3.947.38 5.871l9.916-1.293A35.4 35.4 0 0 1 270 94h-10Zm3.417 17.227a44.962 44.962 0 0 0 5.882 10.171l7.93-6.093a34.962 34.962 0 0 1-4.575-7.909l-9.237 3.831Zm14.185 18.474a44.962 44.962 0 0 0 10.171 5.882l3.831-9.237a34.962 34.962 0 0 1-7.909-4.575l-6.093 7.93Zm21.527 8.919c1.924.251 3.883.38 5.871.38v-10c-1.554 0-3.082-.101-4.578-.296l-1.293 9.916ZM305 139c1.988 0 3.947-.129 5.871-.38l-1.293-9.916A35.406 35.406 0 0 1 305 129v10Zm17.227-3.417a44.962 44.962 0 0 0 10.171-5.882l-6.093-7.93a34.962 34.962 0 0 1-7.909 4.575l3.831 9.237Zm18.474-14.185a44.962 44.962 0 0 0 5.882-10.171l-9.237-3.831a34.962 34.962 0 0 1-4.575 7.909l7.93 6.093Zm8.919-21.527c.251-1.924.38-3.883.38-5.871h-10a35.4 35.4 0 0 1-.296 4.578l9.916 1.293ZM350 94c0-.537.097-1.078.28-1.59l-9.41-3.383A14.724 14.724 0 0 0 340 94h10Zm2.052-3.762A2.225 2.225 0 0 1 353.06 90V80c-1.967 0-3.813.466-5.452 1.28l4.444 8.958ZM353.06 90h5.04V80h-5.04v10Zm15.121 0h10.081V80h-10.081v10Zm20.162 0h10.081V80h-10.081v10Zm20.162 0h10.08V80h-10.08v10Zm20.161 0h10.081V80h-10.081v10Zm20.162 0h10.081V80h-10.081v10Zm20.162 0h10.08V80h-10.08v10Zm20.161 0h10.081V80h-10.081v10Zm20.162 0h10.081V80h-10.081v10Zm20.162 0h10.08V80h-10.08v10Zm20.161 0h10.081V80h-10.081v10Zm20.162 0h10.081V80h-10.081v10Zm20.162 0H595V80h-5.04v10Zm5.04 0c2.025 0 3.968-.404 5.743-1.14l-3.83-9.237A4.974 4.974 0 0 1 595 80v10Zm13.86-9.257A14.975 14.975 0 0 0 610 75h-10a4.98 4.98 0 0 1-.377 1.913l9.237 3.83ZM610 75v-5h-10v5h10Zm0-15V50h-10v10h10Zm0-20V30h-10v10h10Zm0-20v-5h-10v5h10Zm0-5c0-2.025-.404-3.968-1.14-5.743l-9.237 3.83A4.98 4.98 0 0 1 600 15h10Zm-9.257-13.86A14.966 14.966 0 0 0 595 0v10c.687 0 1.33.136 1.913.377l3.83-9.237ZM595 0h-5v10h5V0Zm-15 0h-10v10h10V0Zm-20 0h-10v10h10V0Zm-20 0h-10v10h10V0Zm-20 0h-10v10h10V0Zm-20 0h-10v10h10V0Zm-20 0h-10v10h10V0Zm-20 0h-10v10h10V0Zm-20 0h-10v10h10V0Zm-20 0h-10v10h10V0Zm-20 0h-10v10h10V0Zm-20 0h-10v10h10V0Zm-20 0h-10v10h10V0Zm-20 0h-10v10h10V0Zm-20 0h-10v10h10V0Zm-20 0h-10v10h10V0Zm-20 0h-10v10h10V0Zm-20 0h-10v10h10V0Zm-20 0h-10v10h10V0Zm-20 0h-10v10h10V0Zm-20 0h-10v10h10V0Zm-20 0h-10v10h10V0Zm-20 0h-10v10h10V0Zm-20 0h-10v10h10V0Zm-20 0h-10v10h10V0Zm-20 0H90v10h10V0ZM80 0H70v10h10V0ZM60 0H50v10h10V0ZM40 0H30v10h10V0ZM20 0h-5v10h5V0Zm-5 0a14.97 14.97 0 0 0-5.743 1.14l3.83 9.237A4.97 4.97 0 0 1 15 10V0ZM1.14 9.257A14.97 14.97 0 0 0 0 15h10c0-.687.136-1.33.377-1.913L1.14 9.257Z" mask="url(#c)"/>
  <defs>
    <radialGradient id="b" cx="0" cy="0" r="1" gradientTransform="matrix(0 43.4334 -317.5 0 305 30.65)" gradientUnits="userSpaceOnUse">
      <stop offset=".038" stop-color="#BD2828"/>
      <stop offset="1" stop-color="#870404"/>
    </radialGradient>
    <filter id="a" width="614" height="143" x="0" y="0" color-interpolation-filters="sRGB" filterUnits="userSpaceOnUse">
      <feFlood flood-opacity="0" result="BackgroundImageFix"/>
      <feBlend in="SourceGraphic" in2="BackgroundImageFix" result="shape"/>
      <feColorMatrix in="SourceAlpha" result="hardAlpha" values="0 0 0 0 0 0 0 0 0 0 0 0 0 0 0 0 0 0 127 0"/>
      <feOffset dx="4" dy="4"/>
      <feGaussianBlur stdDeviation="15.15"/>
      <feComposite in2="hardAlpha" k2="-1" k3="1" operator="arithmetic"/>
      <feColorMatrix values="0 0 0 0 1 0 0 0 0 1 0 0 0 0 1 0 0 0 0.25 0"/>
      <feBlend in2="shape" result="effect1_innerShadow_11_31"/>
    </filter>
  </defs>
</svg>
