<svg xmlns="http://www.w3.org/2000/svg" width="621" height="150" fill="none" viewBox="0 0 621 150">
  <g filter="url(#a)">
    <mask id="b" width="610" height="139" x="5" y="5" fill="#000" maskUnits="userSpaceOnUse">
      <path fill="#fff" d="M5 5h610v139H5z"/>
      <path fill-rule="evenodd" d="M20 10c-5.523 0-10 4.477-10 10v60c0 5.523 4.477 10 10 10h241.94c4.645 0 8.06 4.355 8.06 9 0 22.091 17.909 40 40 40s40-17.909 40-40c0-4.645 3.415-9 8.06-9H600c5.523 0 10-4.477 10-10V20c0-5.523-4.477-10-10-10H20Z" clip-rule="evenodd"/>
    </mask>
    <path fill="#0AD467" d="M15 20a5 5 0 0 1 5-5V5C11.716 5 5 11.716 5 20h10Zm0 60V20H5v60h10Zm5 5a5 5 0 0 1-5-5H5c0 8.284 6.716 15 15 15V85Zm241.94 0H20v10h241.94V85ZM310 134c-19.33 0-35-15.67-35-35h-10c0 24.853 20.147 45 45 45v-10Zm35-35c0 19.33-15.67 35-35 35v10c24.853 0 45-20.147 45-45h-10Zm255-14H358.06v10H600V85Zm5-5a5 5 0 0 1-5 5v10c8.284 0 15-6.716 15-15h-10Zm0-60v60h10V20h-10Zm-5-5a5 5 0 0 1 5 5h10c0-8.284-6.716-15-15-15v10ZM20 15h580V5H20v10Zm335 84c0-1.13.428-2.224 1.081-2.983.624-.727 1.316-1.017 1.979-1.017V85C349.969 85 345 92.332 345 99h10Zm-93.06-4c.663 0 1.355.29 1.979 1.017.653.76 1.081 1.852 1.081 2.983h10c0-6.668-4.969-14-13.06-14v10Z" mask="url(#b)"/>
  </g>
  <defs>
    <filter id="a" width="620.5" height="149.5" x=".5" y=".5" color-interpolation-filters="sRGB" filterUnits="userSpaceOnUse">
      <feFlood flood-opacity="0" result="BackgroundImageFix"/>
      <feColorMatrix in="SourceAlpha" result="hardAlpha" values="0 0 0 0 0 0 0 0 0 0 0 0 0 0 0 0 0 0 127 0"/>
      <feOffset dx="2" dy="2"/>
      <feGaussianBlur stdDeviation="2"/>
      <feComposite in2="hardAlpha" operator="out"/>
      <feColorMatrix values="0 0 0 0 0 0 0 0 0 0 0 0 0 0 0 0 0 0 1 0"/>
      <feBlend in2="BackgroundImageFix" result="effect1_dropShadow_123_162"/>
      <feBlend in="SourceGraphic" in2="effect1_dropShadow_123_162" result="shape"/>
      <feGaussianBlur result="effect2_foregroundBlur_123_162" stdDeviation="2.25"/>
    </filter>
  </defs>
</svg>
