<svg xmlns="http://www.w3.org/2000/svg" width="610" height="139" fill="none" viewBox="0 0 610 139">
  <mask id="a" width="610" height="139" x="0" y="0" fill="#000" maskUnits="userSpaceOnUse">
    <path fill="#fff" d="M0 0h610v139H0z"/>
    <path fill-rule="evenodd" d="M15 5C9.477 5 5 9.477 5 15v60c0 5.523 4.477 10 10 10h241.94c4.645 0 8.06 4.355 8.06 9 0 22.091 17.909 40 40 40s40-17.909 40-40c0-4.645 3.415-9 8.06-9H595c5.523 0 10-4.477 10-10V15c0-5.523-4.477-10-10-10H15Z" clip-rule="evenodd"/>
  </mask>
  <path fill="#015D2B" d="M10 15a5 5 0 0 1 5-5V0C6.716 0 0 6.716 0 15h10Zm0 60V15H0v60h10Zm5 5a5 5 0 0 1-5-5H0c0 8.284 6.716 15 15 15V80Zm241.94 0H15v10h241.94V80ZM305 129c-19.33 0-35-15.67-35-35h-10c0 24.853 20.147 45 45 45v-10Zm35-35c0 19.33-15.67 35-35 35v10c24.853 0 45-20.147 45-45h-10Zm255-14H353.06v10H595V80Zm5-5a5 5 0 0 1-5 5v10c8.284 0 15-6.716 15-15h-10Zm0-60v60h10V15h-10Zm-5-5a5 5 0 0 1 5 5h10c0-8.284-6.716-15-15-15v10ZM15 10h580V0H15v10Zm335 84c0-1.13.428-2.224 1.081-2.983.624-.727 1.316-1.017 1.979-1.017V80C344.969 80 340 87.332 340 94h10Zm-93.06-4c.663 0 1.355.29 1.979 1.017.653.76 1.081 1.852 1.081 2.983h10c0-6.668-4.969-14-13.06-14v10Z" mask="url(#a)"/>
</svg>
