<?xml version="1.0" encoding="utf-8"?>
<!-- Generator: Adobe Illustrator 28.0.0, SVG Export Plug-In . SVG Version: 6.00 Build 0)  -->
<svg version="1.1" id="Layer_1" xmlns="http://www.w3.org/2000/svg" xmlns:xlink="http://www.w3.org/1999/xlink" x="0px" y="0px"
	 viewBox="0 0 236.5 319.4" style="enable-background:new 0 0 236.5 319.4;" xml:space="preserve">
<style type="text/css">
	.st0{display:none;}
	.st1{display:inline;fill:#B3AEAB;}
	.st2{display:inline;fill:#D5D1CF;}
	.st3{display:inline;fill:#F8F7F7;}
	.st4{display:inline;fill:#B0ACB8;}
	.st5{display:inline;fill:#695F70;}
	.st6{display:inline;fill:#BBB9B9;}
	.st7{display:inline;fill:#E6E6E7;}
	.st8{display:inline;fill:#CEE7EC;}
	.st9{display:inline;fill:#6D5C5A;}
	.st10{display:inline;fill:#72A1AA;}
	.st11{display:inline;fill:#928885;}
	.st12{display:inline;fill:#A29A97;}
	.st13{display:inline;fill:#81726F;}
	.st14{display:inline;fill:#A1D2D8;}
	.st15{display:inline;fill:#83B7C0;}
	.st16{display:inline;fill:#191614;}
	.st17{fill:#063434;}
	.st18{fill:#0C4E4C;}
	.st19{fill:#0B6E6C;}
	.st20{fill:#01644B;}
	.st21{fill:#0B1F14;}
	.st22{fill:#0B7C5E;}
	.st23{fill:#191614;}
	.st24{fill:#41B18F;}
	.st25{fill:#0A2E20;}
	.st26{fill:#6D5C5A;}
	.st27{fill:#075E58;}
	.st28{fill:#91C7A6;}
	.st29{fill:#151C1C;}
	.st30{fill:#7D6158;}
	.st31{fill:#9F8171;}
	.st32{fill:#D8AE96;}
	.st33{fill:#26262A;}
	.st34{fill:#1E733F;}
	.st35{fill:#ECD4B3;}
	.st36{fill:#E4C08E;}
	.st37{fill:#DA9962;}
	.st38{fill:#A9592B;}
	.st39{fill:#792D15;}
	.st40{fill:#0D472F;}
	.st41{fill:#06351B;}
	.st42{fill:#CED5B4;}
	.st43{fill:#0D8C5F;}
	.st44{fill:#52AF7C;}
	.st45{fill:#319E6F;}
	.st46{fill:#73C096;}
	.st47{fill:#2F9182;}
</style>
<g id="Background_00000046306506829367004730000009013128869358805166_" class="st0">
	<path class="st1" d="M373.5-101.2c0,255.9,0,255.9,0,511.9c-255.9,0-255.9,0-511.9,0c0-255.9,0-255.9,0-511.9
		C117.5-101.2,117.5-101.2,373.5-101.2z"/>
	<path class="st2" d="M275,305.7c-14.7-7.1-52.4-3.1-69.5-2.5c1-0.9,2-2,3-3c0.6,2.3,13-1.2,17.7-1.5c6.3-0.4,21-0.2,28,0
		c1.8,0.1,8.6,2.4,8-0.5c-9,0.2,0.3-0.3-6-4c-3.1-1.8-14.6-4.6-18.7-5.5c-1.3-4.9,2-3.6,4-5.7c-0.3-2.9,2.9-3,4.7-4.7
		c4.5-4.3,8.5-9,13.7-12.7c3.5-5.3,8.8-15.6,12-20c1.1-1.5,2.8-1.2,3.5-2.5c0.4-0.8-1.1-0.8-1-1c0.2-0.5,1.4,0,1.5-0.5
		c0.1-0.3-3.2-0.7,2.5-4.5c16.6-34.1,24.6-71.5,20-109.5c-4.5-37-27-70.1-52.5-96.5c-15.6-16.1-52.4-42.7-72.7-51.7
		c-17.7-7.8-31.6-9.8-50-13c-0.4-0.1-0.1-0.9-0.5-1c-0.3-0.1-4.4,0.3-6-1.5c-2.2,0-2.2,0-4.5,0c-10.8,4.8-23.1,4.6-34.5,7.5
		C42.7-20,3,6.4-21.5,33c-25,27.1-52.4,73.5-53.5,111c-0.2,8.1,1,7.1,1,7.5c0.1,3.1-0.5,9.5-0.5,10c0,0.4,1,0.1,1,0.5
		c0.5,5.6,0.1,15.2,2.5,20.5c3.9,8.4,0.2-11.4,4.2-11.2c3.6,0.1,2.8,10,5.7,10.2c-1.8,3.7,1.8,3.1-0.5,6.5c0.1,0.5,1.4,0,1.5,0.5
		c3.3,16.5,4.8,24.6,11.5,40.5c8.4,20.1,20.2,38.2,33,55.7c-9,4.7-22.4,12.4-26,22.5c-75-67.4-84.7-168-38.5-255.7
		C-46.1-12.7,30.4-61.2,102.8-64.7C162-67.6,232-39.9,271,5.5c29.5,34.3,52.2,80.4,58,125.5c6.5,50.9-11.4,112.9-40.5,155
		C284.4,291.8,273.8,302.7,275,305.7z"/>
	<path class="st3" d="M83,7.2c-3.2,5.8-0.7,18.1-1.5,25.5c-17.2,9.6-35.8,16.8-53.7,25c-7.8,9.7-38.4,41.9-42.2,47.7
		c-9.9,15.1-18.2,52.9-23,71.5c1.3,4.5,2.6,9.2,3.5,13.7c4.6,22.6,12.5,44.2,18.5,66.5c0.8,1.4,5.1,4,6.5,5.5
		c6.9,7.2,39.7,42,42.2,44c2.5,1.9,5.5,3.5,8.2,5c1.5,0.8,3,1.3,4.5,2c0.9,1.2,0.9,1.2,1.7,2.5c-8.7-1.9-28.8,2.9-35,9
		c-11.4,11.3,18.7,14.7,24,18.5c9.7,1.2,19,4.6,28.5,6.5c6,1.2,22.9,1.6,23.2,5.5c-24.7-1.2-49.9-3.5-74.2-8
		c-7.5-1.4-15.4-4.2-22.7-4.5c-14.4-7.6-40.8-13.9-33-36c3.6-10.1,17-17.8,26-22.5c1.1-0.6,5.1-1.8,5.2-2c0.1-0.6,0.1-0.6,0.2-1.2
		c-33-46.4-54.2-114.1-34-169.5c5.6-15.5,27.2-49.5,38-62.5C17.2,21.7,59.2-2.4,95.3-7.3c1.2,0.3,1.8,4.9,1.5,5.5
		c-17.5,3.5-35.2,8.9-51,18C9.7,37.1-27.8,76-40.9,116c-2.3,6.9-6.5,28.6-7,35.5c-0.6,2.8,1.6,6.4-0.5,8.5c0.7,14.2,2.9,28,5.5,42
		c6.3,18.9,11.8,39.8,21,57.5c3.3,6.3,10.2,15.8,14.2,22.2c4.7-1.7,4.7-1.7,9.5-3.5c-9.6-10.4-9.6-10.4-19.2-20.7c-1-2-1-2-2-4
		c-18.8-54.7-35.8-102.3-8-158c15.8-31.6,45.8-59.2,76.7-75.7c4.7-2.5,30.9-14.3,34-15C87.8,3.7,83.7,6,83,7.2z"/>
	<path class="st2" d="M269,337.7c-33.3,20.4-64.5,29.4-102.7,36c-45.9,7.9-75.4,7.2-120.5-6c-23.1-6.8-34.1-13.8-54.2-24.5
		c7.3,0.3,15.2,3.1,22.7,4.5c24.3,4.5,49.5,6.7,74.2,8c11.7,0.6,63.3,2.1,70.7-0.5c0.2-0.1-1.7-1.8-0.5-2.5c0.2-0.1,3.4-0.1,3.5,0
		c1.4,1-3.7,3.4,10,2c-3.9-3.5,1.6-1.7,3.7-3.5c9.5-0.2,19-0.8,28.5-1.5c16.8-1.3,31.8-3.1,48.2-7c0.2,0,1.4,1.1,3.5,0.5
		c0.5-0.1,0-1.4,0.5-1.5c0.8-0.3,4.4-0.5,5.5-1C263.9,339.9,267.9,336.3,269,337.7z"/>
	<path class="st4" d="M275,305.7c3.5,1.7,6.8,5.9,8.5,9.2c0,5.2,0,5.2,0,10.5c-2.6,6.3-9.2,9-14.5,12.2c-1-1.4-5.1,2.3-6.7,3
		c-1.1,0.5-4.7,0.7-5.5,1c-0.5,0.1,0,1.4-0.5,1.5c-2.1,0.6-3.3-0.5-3.5-0.5c-16.4,3.9-31.4,5.7-48.2,7c-0.3-2,2.8-0.5,3.7-1
		c1-0.5-2.5-3.2,9.2-2.5c0.1,0,0.1,1.1,1.5,0.2c-0.7-0.1-0.7-0.1-1.5-0.2c11.1-1.3-9.4-0.9,0.2-3c0.1,0,0.4,0.7,1.5,0.5
		c9.7-2.1,49.1-8.8,53.2-16.7c7.1-13.6-40.4-16.1-47.2-16.2c-9.6-0.3-26.2,1.3-27.5,1c-0.2,0-0.8-0.7-0.7-1c0.6-0.4,2.1-2.2,2.5-2.5
		c2.1-1.6,4-3.2,6-5C222.6,302.6,260.3,298.5,275,305.7z"/>
	<path class="st2" d="M237.5,288.7c-6.2-1.4-14.1-1.8-14.5-3.5c3.7-4,7.2-8.2,10.5-12.5c7.2-8.2,7.2-8.2,14.5-16.5
		c0.7-0.9,0.7-0.9,1.5-1.7c1.3-6.6,4-12.8,6-19.2c2.2,0.7,3.1-2.2,4-4.2c5-10.8,15.4-56.5,17-69.2c3.3-26.5-2-47.4-13.5-71
		c-11.8-24.3-32.5-47.1-53.7-63.5c-8.2-6.3-30.8-21.1-39.5-24.5c-2-0.8-2.8,0.1-3,0c-0.5-0.2,0-1.3-0.5-1.5c-0.2-0.1-0.2,1.4-1,1
		c-0.4-0.2,0.1-1.4-1-2c-8.1-4.4-22.9-7.2-31.7-10.5c-0.2-6.1-2.6-14-6.5-18.7c-15.7-19.1-38.6,10.8-25.5,32.7
		c-6.1,0.2-7.7-0.4-13.5,2c-1.3,0.5-2.7,0.8-4,1.5c0.7-1.3,4.8-3.5,0.2-2.5c-3.1,0.7-29.3,12.5-34,15c-31,16.6-60.9,44.1-76.7,75.7
		c-27.8,55.6-10.8,103.3,8,158c1,2,1,2,2,4c9.6,10.4,9.6,10.4,19.2,20.7c-4.7,1.7-4.7,1.7-9.5,3.5c-4-6.4-11-16-14.2-22.2
		c-9.2-17.6-14.7-38.6-21-57.5c-2.6-14-4.8-27.8-5.5-42c2.1-2.1-0.1-5.7,0.5-8.5c0.5-6.8,4.7-28.6,7-35.5
		c13.2-40,50.6-78.9,86.7-99.7c15.8-9.1,33.5-14.5,51-18c0.3-0.6-0.3-5.2-1.5-5.5C59.2-2.4,17.2,21.7-6,49.5
		c-10.8,13-32.4,47-38,62.5c-20.2,55.4,1,123,34,169.5c-0.1,0.6-0.1,0.6-0.2,1.2c-0.2,0.2-4.2,1.4-5.2,2
		c-12.8-17.5-24.6-35.7-33-55.7c-6.6-15.9-8.2-24-11.5-40.5c-0.1-0.5-1.4,0-1.5-0.5c2.3-3.4-1.3-2.8,0.5-6.5
		c-2.9-0.3-2.2-10.1-5.7-10.2c-4.1-0.1-0.4,19.7-4.2,11.2c-2.4-5.3-2-14.9-2.5-20.5c0-0.4-1-0.1-1-0.5c0-0.5,0.6-6.9,0.5-10
		c0-0.4-1.2,0.6-1-7.5c1.1-37.4,28.5-83.8,53.5-111C3,6.4,42.7-20,77.8-28.7c11.4-2.9,23.7-2.7,34.5-7.5c2.2,0,2.2,0,4.5,0
		c1.6,1.8,5.7,1.4,6,1.5c0.4,0.1,0.1,0.9,0.5,1c18.4,3.2,32.3,5.2,50,13c20.3,9,57.2,35.6,72.7,51.7c25.4,26.4,48,59.5,52.5,96.5
		c4.7,38-3.4,75.4-20,109.5c-5.7,3.8-2.4,4.2-2.5,4.5c-0.1,0.5-1.3,0-1.5,0.5c-0.1,0.2,1.4,0.2,1,1c-0.7,1.3-2.4,1-3.5,2.5
		c-3.2,4.4-8.5,14.7-12,20c-5.2,3.7-9.3,8.5-13.7,12.7c-1.9,1.8-5,1.9-4.7,4.7C239.5,285,236.2,283.7,237.5,288.7z"/>
	<path class="st2" d="M237.5,288.7c4.1,0.9,15.7,3.7,18.7,5.5c6.3,3.7-3,4.2,6,4c0.6,2.9-6.2,0.6-8,0.5c-7-0.2-21.6-0.4-28,0
		c-4.7,0.3-17.2,3.8-17.7,1.5c3.9-3.7,10.7-10.9,14.5-15C223.4,286.8,231.3,287.3,237.5,288.7z"/>
	<path class="st2" d="M66.5,322.2c-2.5,3-13.1,5.6-14.5,8.7c-2.9,6.7,19,10,23.2,12.2c10-0.6,19.9-1,30-1c0.2,0-0.9,1.1,4,1
		c0.2,0-0.6-0.8,2.7-1c1.4,4.5-14.6,1.3-21.2,3c10.2,0,10.2,0,20.5,0c-8.6,3.4-6.4,1.2,1.5,2c0.1,0,1.4,1,1.5,1c0.2,0,0.6-1.1,1.5-1
		c0.2,0,0.2,1.2,3,1.5c0.4,0,5.5-0.2,8,0c1,0.1,3.8,1.5,4,1.5c2.9,0.3,5.1-0.5,5.5-0.5c0.1,0,1.4,1,1.5,1
		c12.4,0.8,25.8,0.8,38.2,0.5c-2.2,1.8-7.7,0-3.7,3.5c-13.7,1.4-8.6-1-10-2c-0.1-0.1-3.3-0.1-3.5,0c-1.2,0.7,0.7,2.4,0.5,2.5
		c-7.4,2.6-59,1.1-70.7,0.5c-0.3-3.9-17.2-4.3-23.2-5.5c-9.5-1.9-18.8-5.3-28.5-6.5c-5.3-3.8-35.4-7.2-24-18.5
		c6.2-6.1,26.3-10.9,35-9c-0.9-1.2-0.9-1.2-1.7-2.5C52.7,316.9,59.6,319.6,66.5,322.2z"/>
	<path class="st5" d="M197,310.7c0,0.3,0.6,1,0.7,1c1.3,0.3,17.9-1.3,27.5-1c6.8,0.2,54.3,2.6,47.2,16.2c-4.1,8-43.5,14.6-53.2,16.7
		c-1.1,0.2-1.4-0.5-1.5-0.5c-9.6,2.1,10.8,1.7-0.2,3c-11.8-0.7-8.3,2-9.2,2.5c-0.9,0.5-4.1-1-3.7,1c-9.5,0.7-19,1.3-28.5,1.5
		c-12.4,0.3-25.8,0.3-38.2-0.5c-0.1,0-1.4-1-1.5-1c-0.4,0-2.6,0.8-5.5,0.5c-0.2,0-3-1.4-4-1.5c-2.5-0.2-7.6,0-8,0
		c-2.8-0.3-2.8-1.5-3-1.5c-0.9-0.1-1.3,1-1.5,1c-0.1,0-1.4-1-1.5-1c-7.9-0.8-10.1,1.4-1.5-2c-10.2,0-10.2,0-20.5,0
		c6.7-1.7,22.6,1.5,21.2-3c3.1-0.1,6.2,0.1,9.2,0c0-0.5,0-0.5,0-1c-1.4-0.1-1.4-0.1-2.7-0.2c0.4-0.4,0.4-0.4,0.7-0.7
		c-8.7,0-8.7,0-17.5,0c0.2-0.5,0.2-0.5,0.5-1c-8.7,0.5-37.6,1.4-23.7-13c3.9,1.3,8.1,3.4,7.5,1.5c0.6,0.3,0.3,1.2,2.7,2
		c18.8,1.2,38,1.9,56.7,0C158.7,324.9,186.2,317.6,197,310.7z"/>
	<path class="st5" d="M217.5,346.2c0.7,0.1,0.7,0.1,1.5,0.2C217.6,347.2,217.6,346.2,217.5,346.2z"/>
	<path class="st3" d="M263,90.7c-1.1-0.4-1.4,1.5-2.5,0.7c-0.9-0.6-6.7-12.8-11.5-19.5c-20-28.2-45.6-47.2-76.7-61.7
		C169.1,9.9,141.6-2.1,142,3c12.5,6.5,26.1,10.4,38.7,16.7c41.8,21.1,74.9,56.2,86.7,102.2c1.2,4.8,2,14.1,3,17.5
		c0.1,0.3,3.7,1.1,0.5,3.5c2-0.3,2.8,7.6,1,8c2.8,2.8-2.8,8.4,4.5,10.7c-1.6,12.8-12,58.4-17,69.2c-0.9,2-1.8,5-4,4.2
		c3.5-11.4,9.8-36.4,12-48c0.7-3.5,1.5-7,2-10.5c0-0.5,0-0.5,0-1c-4.6-25.4-11.4-50.6-22.5-74c-0.5-1.3-2.2-2-3-3
		c-2-2.5-30.3-32.7-33-35.2c-3.2-3.1-4.9-5.1-9-7.2c-8.4-4.3-38.8-13.5-51-19c0.1-9.3-1.1-18.9-0.5-28.2c-1.5-1.7-3.4-2.5-5.5-3.2
		c-6.1-2.3-8.7-1.4-15-1.5c2.2-5.4,2.7-8.7,2.5-14.5c8.9,3.3,23.7,6.1,31.7,10.5c1.1,0.6,0.6,1.8,1,2c0.8,0.4,0.8-1.1,1-1
		c0.5,0.2,0,1.3,0.5,1.5c0.2,0.1,1-0.8,3,0c8.7,3.4,31.3,18.2,39.5,24.5C230.5,43.7,251.2,66.5,263,90.7z"/>
	<path class="st3" d="M263,90.7c11.5,23.6,16.8,44.5,13.5,71c-7.3-2.4-1.7-8-4.5-10.7c1.8-0.4,1-8.3-1-8c3.2-2.4-0.4-3.2-0.5-3.5
		c-1-3.4-1.8-12.7-3-17.5c-11.9-46-44.9-81.1-86.7-102.2C168.1,13.4,154.5,9.5,142,3c-0.4-5.1,27.1,6.9,30.2,7.2
		C203.4,24.8,229,43.8,249,72c4.7,6.7,10.6,18.9,11.5,19.5C261.6,92.2,261.9,90.4,263,90.7z"/>
	<path class="st3" d="M95.3-18.8c5.3,0.5-3.2,3.6-4.5,4c-2.8,0.8-7.1,0.5-10,1C80-13.6,68.4-9.8,69-11.5
		C72.6-12.5,93.9-18.9,95.3-18.8z"/>
	<path class="st4" d="M75.5,325.2c1,0.3,2,0.7,3,1c-13.8,14.4,15,13.5,23.7,13c-0.2,0.5-0.2,0.5-0.5,1c8.7,0,8.7,0,17.5,0
		c-0.4,0.4-0.4,0.4-0.7,0.7c1.4,0.1,1.4,0.1,2.7,0.2c0,0.5,0,0.5,0,1c-3.1,0.1-6.2-0.1-9.2,0c-3.4,0.2-2.6,1-2.7,1
		c-4.9,0.1-3.8-1-4-1c-10.1,0-20,0.4-30,1c-4.2-2.3-26.2-5.5-23.2-12.2c1.4-3.1,12-5.8,14.5-8.7C69.5,323.2,72.5,324.1,75.5,325.2z"
		/>
	<path class="st3" d="M126.5,4.2c-3,0.1-7-0.3-9.5,0c-0.8-5.6-0.5-2.7-5-1c-10.8,2.4-12.3-8.7-11.5-17c1.2,0.8-0.1,3.8,0.7,4.5
		c1,0.8,23.2-1.1,26,0c1.1-7.8-0.7-6.1-0.7-6.5c-0.2-1.1,0.2-3,0-3.7c-2-6.3-8.4-12.4-15.5-11.2C125.1-36.7,133.6-9.2,126.5,4.2z"/>
	<path class="st3" d="M126.5-15.8c-12.7,0.2-12.7,0.2-25.5,0.5c0.9-5.6,4.4-13.1,10-15.5c7.1-1.2,13.5,4.9,15.5,11.2
		C126.8-18.8,126.3-16.9,126.5-15.8z"/>
	<path class="st2" d="M126.5-15.8c0.1,0.4,1.8-1.3,0.7,6.5c-2.8-1.1-25,0.8-26,0c-0.8-0.7,0.5-3.7-0.7-4.5c0.2-2,0.5-1.4,0.5-1.5
		C113.8-15.5,113.8-15.5,126.5-15.8z"/>
</g>
<g id="Background_00000095307045703291320070000017950378587320527295_" class="st0">
	<path class="st6" d="M373.5-101.3c0,256,0,256,0,512c-256,0-256,0-512,0c0-256,0-256,0-512C117.5-101.3,117.5-101.3,373.5-101.3z"
		/>
	<path class="st6" d="M171,307.7c-0.1-0.1-1.1,0.3-1-0.5c1.9-1.1,3.7-2.4,5.5-3.5c-0.4,1.7,6.3-0.4,9.2-0.5
		c24.4-1.1,63.8,4.4,89.5,5.5c12-21.9,26.3-32.5,40.2-57.8c7.1-12.8,22-43.9,20.5-57.5c4.4-4.7,0.2-6.1,0-9
		c-0.1-1.3,2.9-19.1,2-25.5c0.6-4.7,5.5-8.1,0.5-13.5c-0.5-22.8-6.6-44.5-13.5-66c-4.2-8.9-8.4-17.7-13-26.5c-0.2-0.4,0.1-2.4,0-3.5
		c-4.9-3.6-7.1-10-10.5-15c-3.3-4.9-10.4-10.9-11.5-17c-7.9-2.6-22.8-23.6-25.8-25.8c-5.1,1.4-5.3-8.2-16-11
		c-4.5-7.3-9.9-7.1-10.5-7.5c-1.7-1.1-2.7-3.4-4.5-4.5c-7.9-4.8-20.5-9.4-28-15c-4.4-0.5-8.3-2.2-12-4.5c-6.5-0.5-13.1-2.1-19-5
		c-9-0.3-17-4.8-26-4c-2.8-2-6.2-2.3-9.5-3c6.3-2.3,0.1-4-3-3c-1.9,0.6,3.1,3.3-7.5,3.5c-11.1,0.2-7.8-2.1-8.8-3.8
		c-0.6-1-7.8-0.9-8.2-0.8c-0.5,0.2-1.8,6.8-8,4.5c-1.6-0.6-0.3-4-5.5-3c-4.7,0.9-1.2,3.8-3.5,5c-3.1,1.6-20.9,1.2-22,1.5
		c-0.7,0.2-6.5,6.2-12.5,4.5c-1.3-0.4-2.3-3.2-3.5-3c-1.8,0.3-3.6,13.6-12,4c-9.8,3.6-0.7,4.8-1.2,5.8c-0.3,0.6-10.7,5.4-12.2,4.8
		c-2.2,0.9-3.7,5.1-12,3.5c-3,2.9-5.8,1-7,1.5c-2.9,1.2,4.2,3.3,0.5,5.5c-1.2,0.7-2.8,0.4-3,0.5C-15.4-18.2-27.1-10.1-45,11
		c-23.7,27.9-40.8,58.6-50.5,94c-2.8,18-2.8,18-5.5,36c-0.4,19.2,2.6,37.9,3.5,57c3.2,13.5,3.2,13.5,6.5,27
		c15.1,38.9,32.6,64.1,63.8,92.8c27.5,21.2,53.7,38.9,87.5,48.5c16.7,3.8,33.3,5.9,50,9c18,0.2,36.2-0.7,53.5-5.5
		c6.5,5,9.9,2.9,4.2-0.2c15.3-6.1,32.2-10,48.2-14.8c6.3-1.9,13.7-7.1,19.5-4.5c4-6.9,18.9-7.9,27.5-13c-20.4,1-40.6,3.3-61,3.5
		c-0.2,0-2.8-1-3-1c-14.5,0-61.5,0.8-72.8-3c0.3-2.1,2,0,2.8,0c32.6,0,75.7,2.9,106.5,1c7-0.4,37.6-5.1,41-4
		c5,1.6-10.3,11.1-13,10.5c-4.4,5-12.4,5.7-16.5,11.5c-7.5,0.4-11.8,8.9-20,8.5c-2.3,1.2-11.7,9.5-12.5,9.5c-0.2,0-1.9-2.1-3.5-1.5
		c-3.8,6.2-9.1-0.2-14.5,8c-5.7-0.7-11.3,1.7-16.5,4c-7.5-1.1-15.4,4.8-27,3.5c-9.2,4.3-19.6-0.4-29,3c-8.1-0.9-16.3-0.5-24.5-0.5
		c-4,0-14.2,3.3-24.5-2.5c-9.4,0.7-29.4-4.7-39-8C0.8,367.6-47.6,335-71.5,306c-4.2-5.1-6.8-11.6-12-16c-22.5-36.4-36.9-70-39-113.5
		c-3-63.5,11-131.2,57-178c4.7-4.8,5.8-6.6,11.8-9.8c0.4-0.2,0.7-1.8,1-2c0.6-0.3,6.9,2.1,8-6.5C-41.2-18.9-28.3-31-28.5-32
		c-0.4-1.9-4.7,0,2.2-4.8c1.9,6.1,10-5.5,14.5-6.5c1.7-6.6,12.4-8,17-11.5c1.2,4.9,12.6-2.9,16-4.5c0.5-0.2,5.5-0.3,8.5-5
		c6.2,3,6.6-0.1,10-1c4.6-1.3,9.3-1.8,13-5c6.7,0.3,12.7-2.3,19-4c11.4-1.1,21.8-3,33-5c12.1,0.3,24.4-0.5,36.5,0
		c7.1,0.3,17,2.5,23,1c7.9,5.7,8.6-0.4,15.5,0.5c5.7,3.6,16.3-1.4,19.5,6c0.2-0.5,2.4-1.5,2.5-1.5c1.7,0.2,23.9,10.1,27.5,12
		c13.9,7.2,26,17,39,25.5c32.8,27,59.3,61.2,75.2,100.8c13.6,33.9,15.8,60,18,96c0.2,19.2-7.7,56.1-14.5,74.5
		c-4.9,13.1-14.4,31.3-23,42.5c-3.5,4.2-11,10.4-10.5,12.5c-10.3,1.7-9.9,9.6-16.8,15.8c-5.9,0.4-9.1,5.7-15,6.5
		c-3.6,0.5-53.1-6.3-71.5-7c-5.7-0.2-20.3-0.7-25-0.5c-3.6,0.1-5.7,1.5-6,1.5C176.7,307,172.7,305.6,171,307.7z"/>
	<path class="st6" d="M175.5,303.7c3.9-2.4,11.4-6.6,14.5-9c0,0.4-0.1,1,0.2,1c12.7,0.3,21.2,0.9,33.8,2.5c4.4,0.6,8.7,1.4,13,2
		c9.8,1.5,19.7,2.8,29.2,5.5c3.4-3.2,1.8-5,5.8-11.2c2-3.2,12.2-13.8,16-17c2.8-7,9.6-13.1,10.5-14.5c0.6-1,0.9-3.4,1.5-4.5
		c1.2-2,4.9-6.6,6.5-9.5c2.4-4.2,3.2-11,9.5-18c12.3-26,15.8-80.2,12-108.5c-4.3-31.7-23.1-74.5-44-99c-4-4.7-21.6-22.3-26.2-26.2
		c-11.9-10.1-37.2-26.1-51.5-32c-12.4-5.1-26-7.2-38.5-12c-28.9-4.7-59.1-6.2-88-0.5c-10.1,2-17.7,5.4-27.5,8.5
		c-1.4,0.4-2.8-0.7-3.5-0.5c-16.5,5.3-52.4,25-66,36C-29.4,6.6-39.5,20.2-49,32.5c-0.4,0.6-3,2-4.5,4C-80.9,73.6-91.8,130-90,175.5
		c1.6,16,5,31.4,8.5,47c6.7,14.7,10.6,32.8,22,44.5c5.3,10.4,23.7,32.4,32.2,39.8c6.2,5.3,14.1,8.4,19,15
		c12.4,7.4,24.6,15.1,36.5,23c9.3,2.2,17.9,6.9,27,9.5c0.7,0.2,3.7,0.1,5,0.5c0.2,0.1,2.2,1.8,3,2c16.9,4.2,35.3,3.2,51.5,10
		c10.9,1,21.2-1.9,32-2c6.7-1,12.6-4.4,19.5-4c2-0.8,3.9-2.5,6-3c17.5-4.6,34.8-9.4,52.5-13.5c7.8-3.3-20.4-1.6-26-1.5
		c-2.2,0-7.1,2.1-6,0.5c-6-0.2-12,0.3-18,0c-5.4-0.2-48.7-4-51.5-4.5c-1.4-0.2-10-4.2-10.8-2.8c0,0.1,2,0.9,2,1
		c-0.3,0.7-2.5-0.6-2,1.8c-0.6-0.1-1.4,0.1-2,0c0.2-1.2-4.1-0.8-4.2-1c-0.6-0.6,1.4-4-3.5-4c13.4,0,13.4,0,26.8,0
		c-3.8,0.8-11.5,0.1-3,3c11.2,3.8,58.2,3,72.8,3c0.2,0,2.8,1,3,1c20.4-0.2,40.6-2.5,61-3.5c-8.6,5.1-23.5,6.1-27.5,13
		c-5.8-2.6-13.2,2.6-19.5,4.5c-16.1,4.7-33,8.7-48.2,14.8c5.7,3.1,2.2,5.2-4.2,0.2c-17.3,4.8-35.5,5.7-53.5,5.5
		c-16.7-3.1-33.3-5.2-50-9c-33.8-9.6-60-27.3-87.5-48.5C-58.4,289.1-75.9,263.9-91,225c-3.2-13.5-3.2-13.5-6.5-27
		c-0.9-19.1-3.9-37.8-3.5-57c2.8-18,2.8-18,5.5-36c9.7-35.4,26.8-66.1,50.5-94c17.8-21,29.6-29.1,53.2-42.8c0.2-0.1,1.8,0.2,3-0.5
		c3.7-2.2-3.4-4.3-0.5-5.5c1.2-0.5,4,1.4,7-1.5c8.3,1.6,9.8-2.6,12-3.5c1.5,0.6,11.9-4.2,12.2-4.8c0.5-1-8.6-2.1,1.2-5.8
		c8.4,9.6,10.2-3.7,12-4c1.2-0.2,2.2,2.6,3.5,3c6,1.7,11.8-4.3,12.5-4.5c1.1-0.3,18.9,0.1,22-1.5c2.3-1.2-1.2-4.1,3.5-5
		c5.2-1,3.9,2.4,5.5,3c6.2,2.3,7.5-4.3,8-4.5c0.4-0.2,7.6-0.2,8.2,0.8c1,1.6-2.3,4,8.8,3.8c10.6-0.2,5.6-2.9,7.5-3.5
		c3.1-1,9.3,0.7,3,3c3.3,0.7,6.7,1,9.5,3c9-0.8,17,3.7,26,4c5.9,2.9,12.5,4.5,19,5c3.7,2.3,7.6,4,12,4.5c7.5,5.6,20.1,10.2,28,15
		c1.8,1.1,2.8,3.4,4.5,4.5c0.6,0.4,6,0.2,10.5,7.5c10.7,2.8,10.9,12.4,16,11c2.9,2.1,17.9,23.2,25.8,25.8c1.1,6.1,8.2,12.1,11.5,17
		c3.4,5,5.6,11.4,10.5,15c0.1,1.1-0.2,3.1,0,3.5c4.6,8.8,8.8,17.6,13,26.5c6.9,21.5,13,43.2,13.5,66c5,5.4,0.1,8.8-0.5,13.5
		c0.9,6.4-2.1,24.2-2,25.5c0.2,2.9,4.4,4.3,0,9c1.5,13.6-13.4,44.7-20.5,57.5c-14,25.2-28.3,35.9-40.2,57.8
		c-25.7-1.1-65.1-6.6-89.5-5.5C181.8,303.3,175.1,305.4,175.5,303.7z"/>
	<path class="st6" d="M171,307.7c2.6,2.4,6.8,0,7.2,0c3.4-0.2,7.2-0.5,10.5-0.5c0.2,0,4.2,1,4.5,1c3.2,0.1,17.6-1.4,11.5,1.5
		c5,1.2,9.9-2.3,11,3c10.8,0,10.8,0,21.5,0c-5.1-2.5-10.4-0.3-11-0.5c-3-1.1-1.2-5.8,2-1.5c5.7-1.3,20.8,0.9,28,2
		c4.2,0.7,39.3,5.5,30,12c-7.1,4.9-41.1,8.9-51,9.5c-2.5,0.2-1.4-1.1-2.5-1c-0.4,0-0.1,1-0.5,1c-11.5,0.6-23-0.3-34.5,0
		c-0.5,0,1.5,1.3-9,1c-0.4,0,0.2-1-1-1c-0.4,0-0.1,1-0.5,1c-0.4,0-0.1-1-0.5-1c-9.7-0.4-14.3,1-15.5,1c-0.4,0,0.3-1.1-1.5-1
		c-0.4,0,0.2,1-1,1c-0.6,0-2.8-3.3-11,1c-0.1-4.3-6.9-1-7.5-1c-0.4,0-0.1-1-0.5-1c-4.1-0.1-8.5,0.7-12.5,0.5c-2.4-0.1-5.3-0.9-7.8-1
		c-4.1-0.2-8.5-0.1-12.5-0.5c-0.2-0.5-0.9-1.3-0.2-1.5c1.6-0.5,29,0,33.2,0c1,1.1,2.4,0.5,3.5,0c13,0.1,34.3-0.4,44,0
		c0.1,0,0,1.1,2,0.2c-1-0.1-1-0.1-2-0.2c1.4-0.7,5.9-1.4,7.2-1.5c5.1-0.4,25.3,0.3,10-0.5c0.8-0.8,0.8-0.8,1.5-1.5c-2,0-2,0-4,0
		c2.1-1,2.1-1,4.2-2c0.7,0,1.3,0,2,0c-0.4,0.5-0.4,0.5-0.8,1c4.4-0.3,9.6,0.9,10.2-1c1.4,0,2.1-0.5,1.8,1c1.9-0.1,3.8,0,5.8,0
		c7.3,0.1,29.8,1.1,34.8-3c4.7-3.9-9.7-7.7-12.5-6.5c-0.7-3.6-15.4-1.6-24-2c-3.2-0.1-15.7-3-17.2-0.5c-17.8-2.1-35.6-4.3-53.5-4
		c2.2-1.5,4.7-2.6,7-4C170,308,170.9,307.6,171,307.7z"/>
	<path class="st7" d="M224,298.2c-12.6-1.6-21.1-2.2-33.8-2.5c-0.3,0-0.3-0.6-0.2-1c2.2-1.7,3.6-3.6,5.5-5.5c0.3-0.3,0.7-0.6,1-1
		c8-8.3,21.1-25.3,27.5-35c0.2-0.4,2.8-2.2,3.5-3.2c3.4-15.9,6.6-31.9,9-48c-4.8-21.2-4.8-21.2-9.5-42.5
		c-10.2-15.6-10.2-15.6-20.5-31.2c-2-3.5-3.9-6.9-6.5-10c-4.7-5.5-8.4-6.9-14-11c-12.8-9.4-26-18.8-40.8-25c-1-0.7-0.7-1.4-0.8-1.5
		c5.2-0.1,5.2-0.1,10.5-0.2c-1.9-9.1-1.6-22.6-3-30.7c-0.2-1.1,0.4-2.5-0.8-4c-5.6,0-11.2,0.1-16.8,0c25-28.7-14.6-62-35-36.8
		c-11.2,13.9-4.3,32.8,1,36.2c-7.9,0.2-7.9,0.2-15.8,0.5c-0.5,0.4-0.1,2.7-0.2,3.5c-1.4,10-1.1,21.1-2,31.2c3.2,1.2,4.8,0.2,5,0.2
		c0.5,0.1,3.6,2.5,9,1c0.7,1.5,1.5,1.5,2.5,2.5c-22.9-1.1-40.9,16.6-58.5,29C24.8,136.1,24.8,136.1,9,159c-4.5,22.1-4.5,22.1-9,44.2
		c-0.4,5.9,6,33.6,8,41c0.3,1,0.3,3.7,0.5,5c12,15.5,12,15.5,24,31c9.3,14.8,13,13.6,27,21.5c5.7,3.2,11,6.8,17,9.5
		c3.1,2,3.1,2,6.2,4c-10.5,0.3-31.7-0.6-40.5,1c-1.3,0.2-2.4,1.1-2.8,2.5c-23.7-11.6-42.8-28-59.5-48.5c-6.2-9.1-6.2-9.1-12.5-18.3
		c-0.7-5.6,0.3-12.1-1.5-11.5c1.9-3.2-0.9-6.1-1-6.5c-0.2-1.7,0.5-1.9,0.5-2c0-0.4-1-0.1-1-0.5c-0.7-6.6,0.3-16.1,0.5-23
		C-71.1,113.5,0,12,94.8-8.3c3.4-0.7,25.1-4.1,26.5-4c7.1,3,15,2.7,22.5,4.5C193.5,5.6,227.2,29.3,256,72
		c26.6,43.1,31.6,94.2,15,142c1.2,31.2-8.2,36.9-24.5,59.5c-6.8,5-11.3,12.5-17,18.5C227.5,294.1,223.4,295.9,224,298.2z"/>
	<path class="st7" d="M237,300.2c-0.9-3.1,0.9-0.4,1-0.8c-0.7-4.5,4.2-5.5,6.5-8c0.2-0.2,0.8-2.3,1-2.5c7.3-8.1,19.5-20.3,25.5-29
		c2.1-3.1,1.1-5.2,5.5-7.5c0.1-0.4-1-1.7-0.5-2.5c6.1-10,12.4-13.9,17-26c0.8-2.2,1.2-7.2,1.5-8c0.7-2.1,3.2-7.3,4-10.5
		C308.4,166,306.2,128,292,90c-2-5.4-6.2-10.6-6.5-16.5c-5.1-8.5-9.2-17.7-15-26c-8.6-12.3-19.8-20.4-27.2-32.2
		c-39-28.7-51.3-35.8-99.5-46.5c-7.5-0.7-14.8,0.8-22-2c-16,0.8-16,0.8-32,1.5c-19,5.2-19,5.2-38,10.5c-4.3,2.3-9.2,3.7-12.5,7.5
		c-6.6,0.2-19.5,9-24.5,14C11,0.3,2.5,7.8-2.2,10.7c-13.5,17.7-28.1,32-39.2,51.8c-13.1,23.2-23.5,54.9-25,81.5
		c-2.3,41.2,5.6,77.2,31,110c3.2,4.2,7.2,7.6,8,8.5c0.4,0.5,3,7.5,7.5,7.8c16.7,20.5,35.8,36.9,59.5,48.5c17.2,8.4,35.1,14.6,54,18
		c5.8,6,16,6.3,23.8,10c21.5,4.8,44.5,3.5,65.8-0.2c-1.4-0.3-0.9-1-1.2-1.2c-1.5-0.8-25.1-1.1-34.5-2c-11.6-1.1-23.2-3-34.8-4.5
		c-0.5-2.4,1.7-1.1,2-1.8c0-0.1-2-0.9-2-1c0.7-1.4,9.3,2.5,10.8,2.8c2.8,0.5,46.1,4.3,51.5,4.5c6,0.3,12-0.2,18,0
		c-1.1,1.6,3.8-0.5,6-0.5c5.6-0.1,33.8-1.8,26,1.5c-17.7,4.1-35,8.9-52.5,13.5c-2.1,0.5-4,2.2-6,3c-6.9-0.4-12.8,3-19.5,4
		c-10.8,0.1-21.1,3-32,2c-16.2-6.8-34.6-5.8-51.5-10c-0.8-0.2-2.8-1.9-3-2c-1.3-0.4-4.3-0.3-5-0.5c-9.1-2.6-17.7-7.3-27-9.5
		c-11.9-7.9-24.1-15.6-36.5-23c-4.9-6.6-12.8-9.7-19-15c-8.6-7.4-27-29.4-32.2-39.8c-11.4-11.7-15.3-29.8-22-44.5
		c-3.5-15.6-6.9-31-8.5-47c-1.8-45.5,9.1-101.8,36.5-139c1.5-2,4.1-3.4,4.5-4c9.5-12.3,19.6-25.9,31.8-35.8c13.6-11,49.5-30.7,66-36
		c0.7-0.2,2.1,0.9,3.5,0.5c9.8-3.1,17.4-6.5,27.5-8.5c28.9-5.7,59.1-4.2,88,0.5c12.5,4.8,26.1,6.9,38.5,12
		c14.3,5.9,39.6,21.9,51.5,32c4.6,3.9,22.3,21.6,26.2,26.2c20.9,24.5,39.7,67.3,44,99c3.8,28.3,0.3,82.5-12,108.5
		c-6.3,7-7.1,13.8-9.5,18c-1.6,2.9-5.3,7.5-6.5,9.5c-0.6,1.1-0.9,3.5-1.5,4.5c-0.9,1.4-7.7,7.5-10.5,14.5c-3.8,3.2-14,13.8-16,17
		c-4,6.3-2.3,8-5.8,11.2C256.7,303,246.9,301.7,237,300.2z"/>
	<path class="st7" d="M237,300.2c-4.3-0.6-8.6-1.4-13-2c-0.6-2.3,3.5-4.2,5.5-6.2c5.7-6,10.2-13.5,17-18.5
		c16.3-22.6,25.7-28.3,24.5-59.5c16.6-47.8,11.6-98.9-15-142C227.2,29.3,193.5,5.6,143.8-7.8c-7.5-1.8-15.4-1.5-22.5-4.5
		c-1.4-0.1-23.1,3.3-26.5,4C0,12-71.1,113.5-35,208.5c-0.2,6.9-1.2,16.4-0.5,23c0,0.4,1,0.1,1,0.5c0,0.1-0.7,0.3-0.5,2
		c0.1,0.4,2.9,3.3,1,6.5c1.8-0.6,0.8,5.9,1.5,11.5c6.2,9.1,6.2,9.1,12.5,18.3c-4.5-0.2-7.1-7.3-7.5-7.8c-0.8-0.9-4.8-4.3-8-8.5
		c-25.4-32.8-33.3-68.8-31-110c1.5-26.6,11.9-58.3,25-81.5c11.1-19.7,25.8-34,39.2-51.8C2.5,7.8,11,0.3,14.8,0.2
		c5-5,17.9-13.8,24.5-14c3.3-3.8,8.2-5.2,12.5-7.5c19-5.2,19-5.2,38-10.5c16-0.7,16-0.7,32-1.5c7.2,2.8,14.5,1.3,22,2
		c48.2,10.7,60.5,17.8,99.5,46.5c7.5,11.8,18.6,20,27.2,32.2c5.8,8.3,9.9,17.5,15,26c0.3,5.9,4.5,11.1,6.5,16.5
		c14.2,38,16.4,76,6.5,115.5c-0.8,3.2-3.3,8.4-4,10.5c-0.3,0.8-0.7,5.8-1.5,8c-4.6,12.1-10.9,16-17,26c-0.5,0.8,0.6,2.1,0.5,2.5
		c-4.4,2.3-3.4,4.4-5.5,7.5c-6,8.7-18.2,20.9-25.5,29c-0.2,0.2-0.8,2.3-1,2.5c-2.3,2.5-7.2,3.5-6.5,8
		C237.9,299.9,236.1,297.1,237,300.2z"/>
	<path class="st7" d="M110.5,338.7c0.6,0.1,1.4-0.1,2,0c11.5,1.5,23.2,3.4,34.8,4.5c9.4,0.9,33,1.2,34.5,2c0.4,0.2-0.1,0.9,1.2,1.2
		c-21.3,3.8-44.2,5.1-65.8,0.2c-7.7-3.7-17.9-4-23.8-10c4.8,0.9,9.9,1.8,14.8,2.5C109.9,339.4,110.2,338.7,110.5,338.7z"/>
	<path class="st8" d="M89,316.2c-1.1,0.9-5.1-0.3-9.5-0.5c-2.4-0.1-18.9-0.6-19.8,0c-4.2,3,12.3,13.1,17.5,11.5
		c-0.8,3.6,8.6-0.1,14.2,1.5c-0.8,2.9,4.8,0.8,8.8,1.5c0.5,0.1,0,1.4,0.5,1.5c4.6,0.8,11.3,1.1,16.2,1.5c4,0.4,8.4,0.3,12.5,0.5
		c-13.4,0-13.4,0-26.8,0c4.9,0,2.9,3.4,3.5,4c0.2,0.2,4.5-0.2,4.2,1c-0.3,0-0.6,0.7-2.2,0.5c-4.9-0.7-9.9-1.6-14.8-2.5
		c-18.9-3.4-36.8-9.6-54-18c0.4-1.4,1.4-2.3,2.8-2.5c8.8-1.6,30-0.7,40.5-1c-3.1-2-3.1-2-6.2-4C80.6,313.1,84.8,314.8,89,316.2z"/>
	<path class="st9" d="M163,311.2c17.9-0.3,35.7,1.9,53.5,4c8.9,1.1,23.6,5.1,24.8,2.5c0.5,2,3.8,0.1,9.2,2c1.2,0.4,3.6,0,3.8,3.5
		c-5.7,0.1-39.5,0.3-41.5,1c-0.5,0.2,0.5,1.6-1.8,1.8c1.2,2,3.3,0.3,5.5,0.2c-2.1,1-2.1,1-4.2,2c2,0,2,0,4,0
		c-0.8,0.8-0.8,0.8-1.5,1.5c15.3,0.8-4.9,0.1-10,0.5c-1.4,0.1-5.9,0.8-7.2,1.5c-9.7-0.4-31,0.1-44,0c0.3-0.1-0.8-0.7-0.2-1
		c6.4,0.8,22.3,1,18-0.5c-11.2,0.8-22.4-1-33.5-1.5c-0.5-1-0.5-1-1-2c-13-0.5-25.9-2.1-38.8-4c-3.8-0.6-17.4-2.2-18.2-2.5
		c-2.3-0.8,5.1-1.6,7.8-2c-4.4,1.9,7.5,4.6,12.5,2.2c-1.1-1.3-3.5-0.5-3-2.8c0.5,0,2.9,1.3,5.5,1c-1.6,6.8,13,4.5,23.2,6.5
		c2.7-5.9,13.2-0.8,17.2-6c1.9-0.3,2.3-0.5,3.5-2C151,318.2,158,311.3,163,311.2z"/>
	<path class="st10" d="M153.5,331.7c-1.2,0-2.3,0-3.5,0c-4.2,0-31.7-0.5-33.2,0c-0.7,0.2,0,1,0.2,1.5c-4.9-0.4-11.6-0.7-16.2-1.5
		c-0.5-0.1,0-1.4-0.5-1.5c-3.9-0.7-9.5,1.4-8.8-1.5c4-0.2,4-0.2,8-0.5c1.1-2.2-4-2.9-0.5-2.8c-0.5-1.4-0.5-1.4-1-2.8
		c12.9,1.9,25.7,3.5,38.8,4c0.5,1,0.5,1,1,2c11.1,0.5,22.3,2.3,33.5,1.5c4.3,1.5-11.6,1.3-18,0.5C152.7,331,153.8,331.6,153.5,331.7
		z"/>
	<path class="st11" d="M235.5,327.2c-1.9,0-3.8-0.1-5.8,0c0.4-1.5-0.3-1-1.8-1c-3.1-0.1-6.4,0-9.5,0c-0.7,0-1.3,0-2,0
		c-2.2,0-4.3,1.7-5.5-0.2c2.2-0.2,1.2-1.6,1.8-1.8c2-0.7,35.8-0.9,41.5-1c-0.2-3.5-2.5-3.1-3.8-3.5c2.3-2.9,18.2-0.3,13.8,4
		c-1,1-5.6,1.2-5,2.5C251.8,326.8,241.9,325,235.5,327.2z"/>
	<path class="st12" d="M235.5,327.2c6.4-2.2,16.2-0.4,23.8-1c-0.6-1.3,4-1.5,5-2.5c4.4-4.3-11.4-6.9-13.8-4c-5.4-1.9-8.7,0-9.2-2
		c-1.1,2.6-15.8-1.4-24.8-2.5c1.6-2.5,14.1,0.4,17.2,0.5c8.6,0.4,23.3-1.6,24,2c2.8-1.2,17.2,2.6,12.5,6.5
		C265.3,328.3,242.8,327.3,235.5,327.2z"/>
	<path class="st13" d="M228,326.2c-0.6,1.9-5.9,0.7-10.2,1c0.4-0.5,0.4-0.5,0.8-1C221.7,326.2,224.9,326.1,228,326.2z"/>
	<path class="st9" d="M153.5,331.7c-1.1,0.5-2.5,1.1-3.5,0C151.2,331.7,152.4,331.7,153.5,331.7z"/>
	<path class="st9" d="M197.5,331.7c1,0.1,1,0.1,2,0.2C197.5,332.8,197.6,331.7,197.5,331.7z"/>
	<path class="st14" d="M79.5,315.7c0.5,3.2-4.3,5.1-0.2,7.5c2.2,1.3,14.5,2.4,18.2,3.8c-4.1,0.8-0.3,0.5,2,1.2c-4,0.2-4,0.2-8,0.5
		c-5.7-1.6-15,2.1-14.2-1.5c-5.2,1.6-21.7-8.5-17.5-11.5C60.6,315.1,77.1,315.6,79.5,315.7z"/>
	<path class="st15" d="M89,316.2c1,0.3,3.3,0.1,3,1.5c-1.5,0.1-3,0.3-4.5,0.5c-2.6,0.4-10.1,1.2-7.8,2c0.9,0.3,14.4,1.9,18.2,2.5
		c0.5,1.4,0.5,1.4,1,2.8c-3.5-0.2,1.6,0.5,0.5,2.8c-2.3-0.8-6.1-0.4-2-1.2c-3.7-1.4-16.1-2.5-18.2-3.8c-4.1-2.4,0.7-4.3,0.2-7.5
		C83.9,315.9,87.9,317.1,89,316.2z"/>
	<path class="st16" d="M106.5,319.2c1,0,2,0,3,0c6.7,0.1,28.6,0.3,32,0c0.5,0,1,0.1,1.5,0c-4,5.2-14.6,0.1-17.2,6
		c-10.2-2-24.8,0.3-23.2-6.5C103.8,319.5,105.2,319.2,106.5,319.2z"/>
	<path class="st16" d="M97,317.7c-0.5,2.2,1.9,1.5,3,2.8c-5,2.3-16.9-0.4-12.5-2.2c1.5-0.2,3-0.4,4.5-0.5
		C93.9,317.6,95.1,317.6,97,317.7z"/>
	<path class="st7" d="M127.5,45.7c-4.5-0.1-18.1,0.6-21-0.5c-17.1-11.5-8.4-38.8,7.8-41C136.6,1.2,148.8,32.2,127.5,45.7z"/>
</g>
<g>
	<path class="st17" d="M195.5,289.2c-1.9,1.9-3.3,3.8-5.5,5.5c-3.1,2.4-10.6,6.6-14.5,9c-1.8,1.1-3.6,2.4-5.5,3.5
		c-2.3,1.4-4.8,2.5-7,4c-5,0.1-12,7-16.5,6c1.6-1.9,8.2-19.4,10.5-24c0.2-0.3,0.3-0.7,0.5-1c7.6,1.1,15.3,0.5,23,0
		C185.7,291.9,191.1,292.9,195.5,289.2z"/>
	<path class="st18" d="M204.5,254.2c-0.2,0-0.2,0-0.5,0c-12.2-0.1-12.2-0.1-24.5-0.2c-0.7,1.4,4.2,26.3,4,30.8c-0.1,2-1.5,5.9-3,7.5
		c-7.7,0.5-15.4,1.1-23,0c6.3-12.7,14.2-24.9,19.5-38c1.4,0.3,0.9-0.9,1-1c2.9-2.4,17.9-37.5,19.5-43
		C199.5,224.9,201.2,239.7,204.5,254.2z"/>
	<path class="st19" d="M177,254.2c-5.3,13.1-13.2,25.3-19.5,38c-0.2,0.3-0.3,0.7-0.5,1c-0.2,0-0.9-0.8-1-1
		c-7.3-11.7-12-25.1-19.5-36.8c0.5-0.6,0.5-0.6,1-1.2C157.3,254.2,157.3,254.2,177,254.2z"/>
	<path class="st18" d="M157,293.2c-2.3,4.6-8.9,22.1-10.5,24c-1.2,1.5-1.6,1.7-3.5,2c-0.5,0.1-1,0-1.5,0
		c-11.2-12.5-11.2-12.5-22.5-25c0.1-0.4-0.1-1,0-1.5c0.2,0,0.3,0,0.5,0c0.8,0,0.4,1,0.8,1c11.5,0.1,23-0.3,34.5,0
		c0.6-0.8,0.6-0.8,1.2-1.5C156.1,292.4,156.8,293.2,157,293.2z"/>
	<path class="st17" d="M196.5,288.2c-0.3,0.4-0.7,0.7-1,1c-4.4,3.7-9.8,2.7-15,3c1.5-1.6,2.9-5.5,3-7.5c5.8-9.5,18.6-22.4,20.5-30.5
		c0.2,0,0.2,0,0.5,0c0.5-0.5,0.5-0.5,1-1c0.2,0.9,2.9-0.7,4-2c1.5,0.2,0.8,4.5,0.5,6.3c-2,13-4.8,21.4-14.5,30.5
		C196,288.1,196,288.1,196.5,288.2z"/>
	<path class="st20" d="M81,292.2c1.4,1.6,1.4,1.4,1.5,1.5c7.6,8.8,16.5,16.6,24,25.5c-1.4,0-2.8,0.3-4-0.5c-2.6,0.3-5-1-5.5-1
		c-2-0.1-3.1-0.1-5,0c0.3-1.4-2-1.2-3-1.5c-4.2-1.5-8.4-3.2-12.5-5c-6-2.7-11.3-6.3-17-9.5c-0.6-3.2-4.6-5.3-9-10.5
		C65.8,291.7,65.8,291.7,81,292.2z"/>
	<path class="st21" d="M144.5,80.7c0,0.1-0.3,0.8,0.8,1.5c14.7,6.2,27.9,15.6,40.8,25c-8.7-0.9-15.3-7.8-23.5-9
		c-3.2-2.9-5.4-5.1-9.5-7c-8.4-3.8-14.9-3.2-23.5-4c-0.2,0-0.3,0-0.5,0c-0.2-0.4-0.7-1.2-1-1.5c5-11.2,5-11.2,10-22.5
		C139.3,66.8,143,78.6,144.5,80.7z"/>
	<path class="st22" d="M41,114.7c0.2,1,0.5,1.3,0.5,1.5c-0.7-0.1-1.1,0.2-1.5,0.8c-4.1,5.8-17.9,33.1-24.5,41.2
		c-0.1,0.1-1.3,0.8-1.5,1c-0.1,0.1-0.6-1.2-1.5,0.2c-0.8,15-4,29.7-7.5,44.2c-2.5-0.2-2.5-0.2-5-0.5c4.5-22.1,4.5-22.1,9-44.2
		c15.8-22.9,15.8-22.9,31.5-45.8C41.3,113.2,40.9,114,41,114.7z"/>
	<path class="st17" d="M224,253.2c-6.4,9.7-19.5,26.7-27.5,35c-0.5-0.1-0.5-0.1-1-0.2c9.7-9.1,12.5-17.5,14.5-30.5
		c0.3-1.7,1-6.1-0.5-6.3c1.8-2,14.7-23.6,16-26.5c1.9-0.3,1.5,0.5,1.5,2.2C225.5,235.6,224.4,244.7,224,253.2z"/>
	<path class="st23" d="M224,253.2c0.4-8.5,1.5-17.6,3-26.2c0-1.8,0.4-2.5-1.5-2.2c4-9.3,3.1-10.5,2-20c1.8-0.8,4.8-1.5,6.8-0.5
		c2.7-1.3,0.3-3.5,0.2-3.8c-0.9-7.2-2.2-9.4-2.5-11c-0.4-1.9,0-3.8,0-4c-1-4.6-2.6-9.5-4-14c-0.4-1.3,1.8-2-1.5-1.8
		c-0.1-5.5,1.1-10.5-2.5-11.5c-0.2,0-0.3,0-0.5,0c-7.1-9.2-11.3-20.1-17-30c10.2,15.6,10.2,15.6,20.5,31.2
		c4.8,21.2,4.8,21.2,9.5,42.5c-2.4,16.1-5.6,32.1-9,48C226.8,251,224.3,252.8,224,253.2z"/>
	<path class="st18" d="M25.5,254.2c8.3,10.6,14.2,22.8,22.5,33.5c0.9,1.1,1.5,2.3,2.5,3.5c4.4,5.2,8.4,7.3,9,10.5
		c-14-7.9-17.7-6.7-27-21.5C26,269.8,25,267,24.5,254C25,254.1,25,254.1,25.5,254.2z"/>
	<path class="st22" d="M22,251.2c-4.5-0.6-9-1.3-13.5-2c-0.2-1.3-0.2-4-0.5-5c0.7-12.1-1.4-24.4-2.5-36.5c1.7-0.3,1.5-1.1,2.5,0.8
		C15,229.8,15,229.8,22,251.2z"/>
	<path class="st24" d="M99,84.2c0.9,0,1.2,0,2,0.5c0,0.2,0,0.2,0,0.5c-21.8,6.9-40.3,18.2-60,29.5c-0.1-0.7,0.3-1.5-0.5-1.5
		C58.1,100.8,76.1,83.1,99,84.2z"/>
	<path class="st25" d="M186,107.2c5.6,4.1,9.3,5.5,14,11c-0.2,1.4,0.3,2.7,0.5,4c-2.1-0.3-0.3-3.1-3.2-4.5c-0.8-0.4-16.2-3-18.2-2.5
		c-1.2-0.6-1.2-0.6-2.5-1.2c-4.1-5.5-8.9-11.2-14-15.8C170.7,99.4,177.3,106.3,186,107.2z"/>
	<path class="st21" d="M22,251.2c0.9,0.1,2.1,0.1,2-0.5c0.2,0.5,0.2,0.5,0.5,1c0.5,1.2,0.5,1.2,1,2.5c-0.5-0.1-0.5-0.1-1-0.2
		c0.5,13,1.5,15.9,8,26.3c-12-15.5-12-15.5-24-31C13,249.9,17.5,250.6,22,251.2z"/>
	<path class="st21" d="M5,203.7c0.2,0.2,0.2,0.2,0.5,0.5c0.1,1.2-0.1,2.3,0,3.5c1.1,12.1,3.2,24.4,2.5,36.5c-2-7.4-8.4-35.1-8-41
		C2.5,203.5,2.5,203.5,5,203.7z"/>
	<path class="st21" d="M158.5,204.2c0.4,4,3,7.2,4.5,10.8c5.3,12.6,9.4,25.8,15,38.2c-0.1,0.1,0.4,1.3-1,1c-19.8,0-19.8,0-39.5,0
		c-0.8,0-0.8,0-1.5,0c0.1-0.1-0.1-0.4,0-0.5c6.9-16.5,13.5-33.1,20.5-49.5C157.2,204.2,157.9,204.2,158.5,204.2z"/>
	<path class="st25" d="M197.5,204.2c0,0.1,1.4-0.5,1,1.5c-0.8,0.3-0.5,2.7-1,4.5c-1.6,5.5-16.6,40.6-19.5,43
		c-5.6-12.5-9.7-25.7-15-38.2c-1.5-3.6-4.1-6.8-4.5-10.8C171.5,204.1,184.5,204.3,197.5,204.2z"/>
	<path class="st18" d="M204,254.2c-1.9,8.1-14.7,21-20.5,30.5c0.2-4.4-4.7-29.4-4-30.8C191.8,254.1,191.8,254.1,204,254.2z"/>
	<path class="st17" d="M206,251.2c-0.4,0.7-0.7,1.2-0.5,2c-0.5,0.5-0.5,0.5-1,1c-3.4-14.5-5-29.3-7-44c0.5-1.8,0.2-4.2,1-4.5
		C201.2,220.8,205.2,235.9,206,251.2z"/>
	<path class="st18" d="M137.5,254.2c-0.5,0.6-0.5,0.6-1,1.2c7.5,11.6,12.2,25.1,19.5,36.8c-0.6,0.8-0.6,0.8-1.2,1.5
		c-11.5-0.3-23,0.1-34.5,0c-0.4,0,0-1-0.8-1c5.6-12.8,11.1-25.6,16.5-38.5C136.8,254.2,136.8,254.2,137.5,254.2z"/>
	<path class="st25" d="M135.5,253.7c0.2,0,0.2,0,0.5,0c-0.1,0.1,0.1,0.4,0,0.5c-5.4,12.9-10.9,25.7-16.5,38.5c-0.2,0-0.3,0-0.5,0
		c-0.3,0-0.7,0-1,0c-12.2-19.5-12.2-19.5-24.5-39C107.5,253.9,121.5,254.5,135.5,253.7z"/>
	<path class="st21" d="M118,292.7c0.3,0,0.7,0,1,0c-0.1,0.5,0.1,1.1,0,1.5c-1.7,6.6-8.2,17.5-9.5,25c-1,0-2,0-3,0
		c-7.5-8.9-16.4-16.7-24-25.5c0.1-0.5,0.1-0.5,0.2-1C94.5,294.1,106.3,292.6,118,292.7z"/>
	<path class="st17" d="M141.5,319.2c-3.4,0.3-25.3,0.1-32,0c1.3-7.5,7.8-18.4,9.5-25C130.3,306.7,130.3,306.7,141.5,319.2z"/>
	<path class="st26" d="M227.5,204.7c1.1,9.5,2,10.7-2,20c-1.3,2.9-14.2,24.5-16,26.5c-1.1,1.3-3.8,2.9-4,2c-0.2-0.8,0.1-1.3,0.5-2
		c7.8-14.9,9.2-33.2,14.5-48.5c1.1,1.4,1.9,0,2,0c0.9-0.1,1.2,1.1,3.5-0.5C226.3,204.4,227.5,204.6,227.5,204.7z"/>
	<path class="st27" d="M93.5,253.7c12.2,19.5,12.2,19.5,24.5,39c-11.7-0.1-23.5,1.4-35.2,0c-0.1,0.5-0.1,0.5-0.2,1
		c-0.1-0.1-0.1,0.1-1.5-1.5c-10.1-11.8-18.8-25.3-28.5-37.5c13.3,0,26.7-0.6,40-1C92.9,253.7,93.2,253.7,93.5,253.7z"/>
	<path class="st22" d="M52.5,254.7c9.7,12.2,18.4,25.7,28.5,37.5c-15.2-0.5-15.2-0.5-30.5-1c-1-1.2-1.6-2.4-2.5-3.5
		c0.1-0.7,1.4-1.4,1.5-1.8c0.3-1-0.1-18.3,0-21.5c0.1-2.5,1.6-9.3,1.5-9.8C51,252.6,51.8,254.7,52.5,254.7z"/>
	<path class="st25" d="M162.5,98.2c5.1,4.5,9.9,10.3,14,15.8c1.2,0.6,1.2,0.6,2.5,1.2c2.7,5.5,22.1,38.5,22.5,40.8
		c0.1,0.8-0.1,1.7,0,2.5c-8.1,0-16.4,0.7-24.5,0.8c-0.3,0-0.7,0-1,0c-13.8,0.1-27.7-0.1-41.5,0c0-0.3-0.1-0.8,0-1
		c3.5-9.1,13.9-37.9,15.5-45c1.6-7.2,1.8-14.7,3-22C157.1,93.1,159.3,95.3,162.5,98.2z"/>
	<path class="st24" d="M129,87.2c0.2,0,0.3,0,0.5,0c10.2,13,10.2,13,20.5,26c-1.6,7.1-12,35.9-15.5,45c-6.5-14.9-14.4-29.2-21-44
		c-0.1-0.1,0.1-0.4,0-0.5c0-0.1,0.9,0.1,0-2c5.6-6.4,8.7-16.8,13-24.5C127.3,87.3,128.2,87.1,129,87.2z"/>
	<path class="st18" d="M153,91.2c-1.2,7.3-1.4,14.8-3,22c-10.2-13-10.2-13-20.5-26C138.1,88,144.7,87.4,153,91.2z"/>
	<path class="st28" d="M102,85.7c0,0.4-0.1,0.8,0,1c-9.9,8.1-19.6,16.6-28,26.2c19.8,0.4,19.8,0.4,39.5,0.8c0.1,0.1-0.1,0.4,0,0.5
		c-7.2,13.7-15.8,27-22.5,41c-2.1,1.4-1.2,4.1-3,1.2c-1.2-1.9-12.6-36.4-15.2-42.8c-0.9,3.8-27.8,43.8-25.5,45
		c14.1-0.4,28.2,0.3,42.2,0.5c10.5,22.2,10.5,22.2,21,44.5c-2.1-0.3-36.3,0.9-43,1c-0.4-0.8-1.1-1.8-1.5-2.5
		c-3.7-7.7-16.2-37.9-18-40.8c-1.1-1.7-1.2-3.3-3.8-2.8c-5.9,14.9-12,29.6-17.8,44.5c-0.2,0.4-0.5,0.6-0.5,1c-0.2,0-0.2,0-0.5,0
		c-5.8-22.5-5.8-22.5-11.5-45c0.2-0.2,1.4-0.9,1.5-1c14.5-0.1,14.5-0.1,29-0.2c-2-13.8-1.9-27.9-3-41.8c0-0.2-0.3-0.5-0.5-1.5
		c19.7-11.3,38.2-22.6,60-29.5C102.1,84.9,102,85.7,102,85.7z"/>
	<path class="st24" d="M41.5,116.2c1.1,13.9,1,27.9,3,41.8c-14.5,0.1-14.5,0.1-29,0.2C22.1,150,35.9,122.8,40,117
		C40.4,116.4,40.8,116.1,41.5,116.2z"/>
	<path class="st24" d="M14,159.2c5.8,22.5,5.8,22.5,11.5,45c-0.3,0-0.7,0-1,0c-4.8-0.6-13.4,0.4-19,0C5.3,204,5.3,204,5,203.7
		c3.5-14.5,6.7-29.3,7.5-44.2C13.5,158,14,159.3,14,159.2z"/>
	<path class="st17" d="M200.5,122.2c1.6,11.9,2,24,3,36c8.5,22.2,8.5,22.2,17,44.5c-5.3,15.3-6.7,33.6-14.5,48.5
		c-0.8-15.3-4.8-30.4-7.5-45.5c0.4-2-1-1.4-1-1.5c-0.1-0.3,0.9-0.3-1-5.2c-9.8-19.9-9.8-19.9-19.5-39.8c8.1-0.1,16.4-0.8,24.5-0.8
		c-0.1-0.8,0.1-1.7,0-2.5c-0.4-2.3-19.8-35.2-22.5-40.8c2.1-0.5,17.4,2.1,18.2,2.5C200.3,119.1,198.4,122,200.5,122.2z"/>
	<path class="st29" d="M227.5,204.7c0-0.1-1.2-0.3-1.5-2.5c-0.5-10.8,0.7-21.7,0.5-32.5c3.3-0.2,1.1,0.5,1.5,1.8c1.4,4.5,3,9.4,4,14
		c0,0.2-0.4,2.1,0,4c0.3,1.6,1.6,3.8,2.5,11c0,0.3,2.4,2.4-0.2,3.8C232.3,203.2,229.3,203.9,227.5,204.7z"/>
	<g>
		<path class="st30" d="M206.5,128.2c5.7,9.9,9.9,20.8,17,30c-3.9-0.7-14.8,0.6-20,0c-1-12-1.4-24.1-3-36c-0.2-1.3-0.7-2.6-0.5-4
			C202.6,121.3,204.5,124.7,206.5,128.2z"/>
		<g>
			<path class="st31" d="M223.5,158.2c0.2,0,0.3,0,0.5,0c0.5,14.9-3,29.7-1.5,44.5c-0.1,0-0.9,1.4-2,0c-8.5-22.2-8.5-22.2-17-44.5
				C208.7,158.8,219.6,157.5,223.5,158.2z"/>
			<path class="st32" d="M226.5,169.7c0.2,10.8-1,21.7-0.5,32.5c-2.3,1.6-2.6,0.4-3.5,0.5c-1.5-14.8,2-29.6,1.5-44.5
				C227.6,159.2,226.4,164.2,226.5,169.7z"/>
		</g>
	</g>
	<path class="st20" d="M41.5,252.7c2.8,0.2,5.5,0.9,8.2,0c0.3,0.1,1.2,1.9,1.2,2c0.1,0.5-1.4,7.3-1.5,9.8c-0.1,3.2,0.3,20.5,0,21.5
		c-0.1,0.4-1.4,1-1.5,1.8c-8.3-10.7-14.2-22.9-22.5-33.5c-0.5-1.2-0.5-1.2-1-2.5C30.1,252.6,35.9,252.3,41.5,252.7z"/>
	<path class="st22" d="M24.5,204.2c0.5,3.2,0.5,6.3,0.5,9.5c0.2,12.3-0.6,24.7-1,37c0.1,0.6-1.1,0.6-2,0.5c-7-21.4-7-21.4-14-42.8
		c-1-1.9-0.8-1.1-2.5-0.8c-0.1-1.2,0.1-2.3,0-3.5C11.1,204.6,19.7,203.6,24.5,204.2z"/>
	<g>
		<path class="st33" d="M134.5,45.7c-0.6,0-2.6,0.5-5,0.5c-1.2,0.9-1.9-0.5-2-0.5c21.3-13.5,9.1-44.5-13.2-41.5
			c-16.2,2.2-24.9,29.5-7.8,41c-1.3,2-4.3,1.1-6,0c-5.3-3.5-12.2-22.3-1-36.2C119.9-16.3,159.5,17,134.5,45.7z"/>
		<path class="st34" d="M96.5,81.7c-5.4,1.5-8.5-0.9-9-1c2-8.2,2-8.2,4-16.5C92.1,67.1,95.6,79.7,96.5,81.7z"/>
		<g>
			<path class="st35" d="M101,49.2c-0.2,17.1-0.2,17.1-0.5,34.2c0.8-0.4,0.8-0.4,1.5-0.8c0,0.1,0.1,0.8-1,2c-0.8-0.5-1.1-0.5-2-0.5
				c-1-1-1.8-1-2.5-2.5c-1-2-4.5-14.6-5-17.5c-0.8-4.2-1.1-10.5-1.5-15C95.5,49.2,95.5,49.2,101,49.2z"/>
			<path class="st36" d="M90,49.2c0.4,4.5,0.7,10.8,1.5,15c-2,8.2-2,8.2-4,16.5c-0.2-0.1-1.8,0.9-5-0.2c0.9-10.1,0.6-21.3,2-31.2
				C87.3,49.2,87.3,49.2,90,49.2z"/>
			<path class="st37" d="M106.5,45.2c2.9,1.1,16.5,0.4,21,0.5c0.1,0,0.8,1.4,2,0.5c-0.1,1.9,2.6,1,2,4c-2.5-0.3-6.2,0.2-9,0
				c-0.1,0,0.2-1-0.2-1c-7-0.5-14.2,0.4-21.2,0c-5.5,0-5.5,0-11,0c-2.8,0-2.8,0-5.5,0c0.1-0.8-0.3-3.1,0.2-3.5
				c7.9-0.2,7.9-0.2,15.8-0.5C102.2,46.3,105.2,47.2,106.5,45.2z"/>
			<path class="st38" d="M131.5,50.2c2.3,0.3,1.7,0.4,3,2.5c1.9,3.3,2.2,7.1,3.5,10.5c-5,11.2-5,11.2-10,22.5c-1.1-1.1-2.1-1.7-3-3
				c0.3-10.7-1.5-21.7-2.5-32.5C125.3,50.4,129.1,49.9,131.5,50.2z"/>
			<g>
				<path class="st38" d="M134.5,45.7c5.6,0.1,11.2,0,16.8,0c1.2,1.5,0.6,2.9,0.8,4c-8.2,2-20.1-2-17.5,3c-1.3-2.1-0.7-2.2-3-2.5
					c0.6-3-2.1-2.1-2-4C131.9,46.2,133.9,45.7,134.5,45.7z"/>
				<g>
					<path class="st39" d="M144.5,80.7c-1.5-2.1-5.2-13.9-6.5-17.5c-1.3-3.4-1.6-7.2-3.5-10.5c-2.6-5,9.3-1,17.5-3
						c1.4,8.1,1.1,21.7,3,30.7C149.8,80.6,149.8,80.6,144.5,80.7z"/>
					<path class="st39" d="M142.3,71.2c1-0.6,5.4,2.7,6.2,3.8C154.4,82.4,142.1,81.9,142.3,71.2z"/>
				</g>
			</g>
			<path class="st36" d="M122.5,50.2c1,10.8,2.8,21.8,2.5,32.5c-3.8-5.4-6.3-12-9-18c-0.6-1.3-1.1-3.3-1.5-4.7c-0.5,0-0.5,0-1,0
				C110,67.7,105.7,75,102,82.7c-0.8,0.4-0.8,0.4-1.5,0.8c0.2-17.1,0.2-17.1,0.5-34.2c7,0.4,14.2-0.5,21.2,0
				C122.7,49.2,122.5,50.2,122.5,50.2z"/>
		</g>
	</g>
	<g>
		<path class="st22" d="M116,64.7c2.7,6,5.2,12.6,9,18c0.9,1.3,1.9,1.9,3,3c0.3,0.3,0.8,1.1,1,1.5c-0.8-0.1-1.7,0.1-2.5,0
			c-7.7-0.6-15.4-1-23-2c4.6-2.5,10-21,11-21.7C115.2,62.9,114.7,64.3,116,64.7z"/>
		<path class="st40" d="M116,64.7c-1.3-0.4-0.8-1.8-1.5-1.2c-1,0.8-6.4,19.2-11,21.7c-0.7-0.2-1,0.3-1.5,0.5c-0.1,0,0-0.8-1-0.5
			c0-0.2,0-0.2,0-0.5c1.1-1.2,1-1.9,1-2c3.7-7.7,8-15,11.5-22.7c0.5,0,0.5,0,1,0C115,61.4,115.4,63.4,116,64.7z"/>
	</g>
	<path class="st41" d="M41.5,252.7c-5.6-0.4-11.4-0.1-17-1c-0.2-0.5-0.2-0.5-0.5-1c0.4-12.3,1.2-24.7,1-37
		C30.1,226.8,36.7,240.3,41.5,252.7z"/>
	<path class="st20" d="M156.5,204.2c-7,16.4-13.6,33-20.5,49.5c-0.2,0-0.2,0-0.5,0c-12.5-24.2-12.5-24.2-25-48.5
		c0.1-0.6,0.6-0.7,0.5-1c0.2,0,0.2,0,0.5,0C126.5,205.6,141.5,204.3,156.5,204.2z"/>
	<path class="st18" d="M177,159.2c9.8,19.9,9.8,19.9,19.5,39.8c1.9,4.9,0.9,5,1,5.2c-13,0.1-26-0.1-39,0c-0.7,0-1.3,0-2,0
		c0.4-0.9,0.5-1.4,0.5-1.5c6.2-14.5,13.7-28.6,19-43.5C176.4,159.2,176.7,159.2,177,159.2z"/>
	<path class="st20" d="M135.5,253.7c-14,0.8-28,0.2-42,0c0-0.5,0-0.5,0-1c3.3-10.8,15.3-40.2,17-47.5
		C123,229.5,123,229.5,135.5,253.7z"/>
	<path class="st42" d="M67.5,204.7c8,16.4,16.1,32.7,26,48c0,0.5,0,0.5,0,1c-0.3,0-0.7,0-1,0c-13.4-0.2-26.8,0.1-40.2,0
		c-0.4-0.5-0.4-0.5-0.8-1c7.5-23.9,7.5-23.9,15-47.8c-20-0.1-20-0.1-40-0.2c-0.2-0.2-0.2-0.2-0.5-0.5c0-0.4,0.3-0.6,0.5-1
		c9.3-0.7,33.4,0.9,38.8,0c0.1,0,0.8-0.7,0.8-1C66.4,202.9,67.1,203.9,67.5,204.7z"/>
	<path class="st20" d="M25.5,204.2c0.2,0,0.2,0,0.5,0c0.2,0.2,0.2,0.2,0.5,0.5c12.5,24,12.5,24,25,48c0.4,0.5,0.4,0.5,0.8,1
		c13.4,0.1,26.8-0.2,40.2,0c-13.3,0.4-26.7,1-40,1c-0.8,0-1.5-2.1-1.5,0c0-0.1-1-1.9-1.2-2c-2.8,0.9-5.5,0.2-8.2,0
		c-4.9-12.4-11.4-25.9-16.5-39c0-3.2,0-6.3-0.5-9.5C24.8,204.2,25.2,204.2,25.5,204.2z"/>
	<path class="st43" d="M134.5,158.2c-0.1,0.2,0,0.7,0,1c-0.2,0-0.3,0-0.5,0c-14.7,0.1-29.3,0.2-44,0c-0.6-0.6,0.4-2.8,1-4
		c6.7-14,15.3-27.3,22.5-41C120.1,129,128,143.4,134.5,158.2z"/>
	<path class="st19" d="M176,159.2c-5.3,14.9-12.8,29-19,43.5c-11.5-21.5-11.5-21.5-23-43c0-0.2,0-0.2,0-0.5c0.2,0,0.3,0,0.5,0
		C148.3,159.2,162.2,159.3,176,159.2z"/>
	<path class="st44" d="M113.5,111.7c0.9,2.1,0,1.9,0,2c-19.8-0.4-19.8-0.4-39.5-0.8c8.4-9.7,18.1-18.2,28-26.2
		C105.7,95.1,109.9,103.3,113.5,111.7z"/>
	<path class="st45" d="M103.5,85.2c7.6,1,15.3,1.4,23,2c-4.3,7.7-7.4,18.1-13,24.5c-3.7-8.4-7.8-16.6-11.5-25c-0.1-0.2,0-0.6,0-1
		C102.6,85.5,102.8,85,103.5,85.2z"/>
	<path class="st24" d="M111,204.2c0.1,0.3-0.4,0.4-0.5,1c-1.7,7.3-13.7,36.7-17,47.5c-9.9-15.3-18-31.6-26-48c6.7-0.1,40.9-1.3,43-1
		C110.9,203.8,111.1,203.8,111,204.2z"/>
	<path class="st24" d="M134,159.2c0,0.2,0,0.2,0,0.5c-11.2,22.2-11.2,22.2-22.5,44.5c-0.2,0-0.2,0-0.5,0c0.1-0.4-0.1-0.4-0.5-0.5
		c-10.5-22.2-10.5-22.2-21-44.5c0.2,0,0.3,0,0.5,0C104.7,159.4,119.4,159.3,134,159.2z"/>
	<path class="st46" d="M91,155.2c-0.6,1.2-1.6,3.4-1,4c-0.2,0-0.3,0-0.5,0c-14.1-0.2-28.2-0.9-42.2-0.5c-2.3-1.2,24.6-41.2,25.5-45
		c2.7,6.3,14,40.8,15.2,42.8C89.8,159.3,89,156.6,91,155.2z"/>
	<path class="st42" d="M66,202.2c0,0.3-0.6,1-0.8,1c-5.3,0.9-29.5-0.7-38.8,0c5.7-14.9,11.9-29.6,17.8-44.5c2.6-0.5,2.7,1,3.8,2.8
		C49.8,164.4,62.3,194.5,66,202.2z"/>
	<path class="st47" d="M157,202.7c0,0.1-0.1,0.6-0.5,1.5c-15,0.1-30,1.4-45,0c11.2-22.2,11.2-22.2,22.5-44.5
		C145.5,181.2,145.5,181.2,157,202.7z"/>
	<path class="st44" d="M51.5,252.7c-12.5-24-12.5-24-25-48c20,0.1,20,0.1,40,0.2C59,228.8,59,228.8,51.5,252.7z"/>
</g>
</svg>
