<svg xmlns="http://www.w3.org/2000/svg" width="156" height="76" fill="none" viewBox="0 0 156 76">
  <g clip-path="url(#a)">
    <path fill="#fff" d="M30.986 23.025c.178 2.248 0 4.137-.712 5.846-.712 1.619-1.78 3.058-3.117 4.137-1.424 1.08-3.116 1.889-5.075 2.519-1.959.63-4.185.81-6.5.81-.89 0-1.87-.09-2.938-.36a25.02 25.02 0 0 1-3.295-.81c-1.157-.36-2.137-.63-3.205-.99-.98-.36-1.96-.719-2.671-.989.445-3.957.623-6.026 1.068-9.983 1.514.81 3.206 1.439 4.986 1.889 1.781.45 3.651.63 5.432.63h1.247c.534 0 .89-.09 1.335-.18.445-.09.802-.27 1.069-.54.267-.27.445-.63.356-1.08 0-.27-.178-.54-.356-.81a7.818 7.818 0 0 0-.89-.539c-.357-.18-.713-.27-1.158-.36-.446-.09-.802-.09-1.247-.18-.445 0-.801-.09-1.157-.09h-.802c-1.514 0-2.85-.27-4.096-.719a8.603 8.603 0 0 1-3.205-2.069c-.89-.899-1.603-1.888-2.048-3.058-.534-1.169-.712-2.518-.802-3.867 0-1.889.357-3.598 1.158-5.127.801-1.529 1.78-2.788 3.116-3.867 1.247-1.08 2.76-1.889 4.452-2.429A16.785 16.785 0 0 1 17.096 0c.801 0 1.603 0 2.493.09.89.09 1.692.18 2.582.27.89.18 1.692.36 2.493.54l2.404.809c0 3.957 0 5.936-.088 9.803-1.158-.36-2.405-.72-3.651-.899-1.247-.27-2.493-.36-3.74-.36h-.89c-.357 0-.713 0-1.069.09-.356 0-.801.09-1.157.18-.357.09-.713.18-.98.36s-.534.36-.712.54c-.178.18-.267.45-.178.809 0 .36.178.63.445.9.267.18.623.36 1.068.539.446.18.89.18 1.425.27.534.09.98.09 1.514.09h2.493a12.6 12.6 0 0 1 3.74.81c1.157.449 2.137 1.079 2.938 1.888.801.81 1.514 1.709 2.048 2.788.267 1.08.623 2.249.712 3.508Zm28.939-.72c-4.809 1.71-7.124 2.788-11.309 5.307-.534-1.44-.712-2.249-1.246-3.778-1.959.81-2.85 1.26-4.63 2.159-.356 2.069-.446 3.148-.713 5.396-3.74 2.069-5.164 3.238-10.774 2.789 2.583-10.793 4.007-21.766 6.678-32.47C43.275 1.35 45.945 1.17 51.377.9c3.561 9.714 5.075 13.761 8.548 21.406ZM46.48 18.168a315.263 315.263 0 0 1-1.781-6.476c-.624 2.968-.89 4.407-1.425 7.555 1.246-.45 1.87-.63 3.206-1.079ZM94.918.72a9848.31 9848.31 0 0 1-.89 21.136c-5.165-.9-7.925-1.17-13.535-1.17-3.027-4.227-4.54-6.206-7.301-10.343a440.504 440.504 0 0 1-1.425 10.703c-4.72.45-7.034.9-11.486 2.069.712-9.084 1.068-13.581 1.78-22.485L74.35.18c3.295 4.137 5.076 6.116 8.726 10.343.09-3.867.09-5.846.178-9.803 4.72.09 7.035.09 11.665 0Zm27.424.54c-.534 4.047-.801 6.115-1.246 10.073-2.582-.36-3.918-.63-6.589-.99-1.069 7.915-1.514 11.782-2.315 19.247-3.295-1.708-5.076-2.608-8.815-3.957-.178-6.655-.178-10.073-.356-16.729-2.85-.27-4.274-.36-7.124-.54V.81c8.726.18 17.63.27 26.445.45Zm29.295 32.558c-5.432.63-8.103.9-13.623 1.529-.535-2.159-.802-3.328-1.336-5.487h-6.144c-.712 2.159-1.068 3.328-1.781 5.487-5.52-.45-8.548-.36-12.02-3.328 3.562-10.253 8.014-20.147 12.02-30.22 5.521-.27 8.281-.45 13.713-.72 2.76 11.063 5.787 21.946 9.171 32.739Zm-15.404-11.333a279.208 279.208 0 0 1-1.425-8.454c-.979 3.417-1.513 5.036-2.493 8.454h3.918ZM30.986 61.7c.178 2.248-.089 4.137-.89 5.846a10.771 10.771 0 0 1-3.65 4.137c-1.604 1.08-3.473 1.889-5.7 2.428-2.226.54-4.63.81-7.212.81-.98 0-2.137-.09-3.294-.36a29.84 29.84 0 0 1-3.651-.81c-1.247-.36-2.404-.63-3.562-.989-1.157-.36-2.137-.72-3.027-.99.534-3.957.801-6.025 1.336-9.983 1.691.81 3.561 1.44 5.61 1.89 2.047.449 4.095.629 6.054.629h1.336c.534 0 1.068-.09 1.513-.18.445-.09.89-.27 1.247-.54.356-.27.445-.63.445-1.08 0-.269-.178-.539-.356-.809-.267-.18-.534-.36-.98-.54a6.504 6.504 0 0 0-1.246-.359c-.445-.09-.98-.09-1.425-.18-.445-.09-.89-.09-1.246-.09h-.98c-1.692 0-3.205-.27-4.63-.72a9.34 9.34 0 0 1-3.562-2.068c-.979-.9-1.78-1.889-2.315-3.058A8.98 8.98 0 0 1 0 50.907c0-1.89.445-3.598 1.336-5.127.89-1.53 2.048-2.788 3.561-3.868 1.425-1.079 3.117-1.888 4.987-2.428s3.828-.81 5.876-.81c.89 0 1.87 0 2.76.09.98.09 1.96.18 2.85.27.98.18 1.87.36 2.85.54.979.18 1.78.54 2.67.81-.089 3.957-.178 5.935-.267 9.803-1.335-.36-2.67-.72-4.096-.9-1.424-.27-2.849-.36-4.184-.36h-.98c-.356 0-.801 0-1.247.09-.445.09-.89.09-1.246.18s-.801.18-1.158.36c-.356.18-.623.36-.801.54-.178.27-.267.45-.267.81 0 .36.178.63.534.899.267.18.712.36 1.158.54.445.18.98.18 1.602.27.535.09 1.158.09 1.692.09h2.671c1.514.09 2.939.36 4.185.809 1.247.45 2.315 1.08 3.295 1.889.89.809 1.692 1.708 2.226 2.788.534.99.801 2.158.98 3.507Zm33.836-37.236c-1.247 9.084-1.959 13.76-3.295 23.295-4.63 2.338-6.767 3.957-10.328 7.734.178-5.576.178-8.364.356-13.85-1.781 5.666-2.671 8.724-4.007 15.29-1.158 1.529-1.692 2.338-2.76 3.957-.98-3.148-1.514-4.767-2.672-8.365.268 5.667.446 8.545.802 14.211-1.96 4.857-2.582 7.285-8.192 7.465-.801-11.152-1.692-22.305-2.582-33.548 5.699-.18 6.678-2.338 10.24-5.396A434.93 434.93 0 0 0 46.39 45.6c1.87-7.465 3.028-10.793 5.521-16.909 4.808-2.069 7.48-3.058 12.91-4.227Zm35.26 25.183c-4.452-2.698-7.034-3.777-12.466-4.856-.712-1.53-1.068-2.249-1.78-3.688-2.583-.54-3.83-.63-6.5-.72-.535 1.26-.89 1.89-1.514 3.238-6.055-.27-8.993.27-14.336 2.069 4.452-9.804 6.857-13.851 11.22-21.766 6.054-.45 9.17-.27 14.87.63 4.184 8.185 7.39 16.549 10.506 25.093ZM84.678 36.426a317.373 317.373 0 0 0-2.226-5.307c-.801 1.89-1.157 2.879-2.048 4.857 1.78.09 2.671.27 4.274.45Zm33.658 3.598c-.713 3.687-1.069 5.486-1.692 9.084-.267-.45-.445-.9-.712-1.35a5.636 5.636 0 0 0-.802-1.079 11.41 11.41 0 0 0-2.137-2.068c-.712-.45-1.425-.72-2.048-.81-.623 0-1.068.18-1.513.63-.446.45-.535 1.169-.535 2.248 0 .63.089 1.35.267 2.069.178.72.446 1.439.802 2.159.356.719.712 1.439 1.157 2.158l1.336 2.159c.356.54.712.989 1.068 1.529.357.45.713.9.98 1.259.356.36.623.72.89.99.267.269.535.539.802.719-.624 4.137-.891 6.116-1.425 10.073-.267-.36-.445-.9-.801-1.439a40.24 40.24 0 0 0-.98-1.799c-.356-.63-.712-1.349-1.157-2.068-.446-.72-.802-1.44-1.247-2.159-1.157-2.069-2.493-4.137-3.829-6.206-1.335-2.069-2.671-4.047-3.828-5.936-1.158-1.889-2.137-3.598-2.85-5.306-.712-1.71-1.157-3.148-1.246-4.587-.09-1.89.267-3.418.98-4.767.711-1.35 1.78-2.249 3.116-2.879 1.335-.63 3.027-.809 4.986-.54 1.87.27 4.007 1.17 6.144 2.789.801.63 1.602 1.35 2.404 2.249.801.899 1.335 1.708 1.87 2.878Zm37.664-.18c-5.342 6.475-8.192 9.713-13.979 16.19 4.452 6.835 6.767 10.342 11.664 17.178-5.699.81-8.548 1.17-14.247 1.978a407.525 407.525 0 0 1-8.548-10.433c-.534 4.407-.712 6.566-1.246 10.973-5.076.18-7.658.27-12.822.36 1.603-12.412 3.205-24.734 4.808-37.146 5.165.27 7.747.36 12.822.63-.712 4.407-1.068 6.566-1.692 10.973 3.829-4.677 5.699-6.926 9.35-11.603 5.52.27 8.28.54 13.89.9Z"/>
  </g>
  <defs>
    <clipPath id="a">
      <path fill="#fff" d="M0 0h156v76H0z"/>
    </clipPath>
  </defs>
</svg>
