<?xml version="1.0" encoding="utf-8"?>
<!-- Generator: Adobe Illustrator 28.0.0, SVG Export Plug-In . SVG Version: 6.00 Build 0)  -->
<svg version="1.1" id="Layer_1" xmlns="http://www.w3.org/2000/svg" xmlns:xlink="http://www.w3.org/1999/xlink" x="0px" y="0px"
	 viewBox="0 0 24 24" style="enable-background:new 0 0 24 24;" xml:space="preserve">
<style type="text/css">
	.st0{fill:#FFFFFF;}
</style>
<path class="st0" d="M14,20.7v-2.1c1.5-0.4,2.7-1.3,3.6-2.5c0.9-1.2,1.4-2.6,1.4-4.2s-0.5-3-1.4-4.2c-0.9-1.2-2.1-2.1-3.6-2.5v-2
	c2.1,0.5,3.8,1.5,5.1,3.1C20.4,8,21,9.9,21,12s-0.6,4-1.9,5.6C17.8,19.2,16.1,20.3,14,20.7z M3,15V9h4l5-5v16l-5-5H3z M14,16V7.9
	c0.8,0.4,1.4,0.9,1.8,1.6c0.4,0.7,0.7,1.5,0.7,2.4c0,0.8-0.2,1.6-0.7,2.4C15.4,15.1,14.8,15.6,14,16z M10,8.8L7.8,11H5v2h2.8
	l2.2,2.1V8.8z"/>
</svg>
