<?xml version="1.0" encoding="utf-8"?>
<!-- Generator: Adobe Illustrator 28.0.0, SVG Export Plug-In . SVG Version: 6.00 Build 0)  -->
<svg version="1.1" id="Layer_1" xmlns="http://www.w3.org/2000/svg" xmlns:xlink="http://www.w3.org/1999/xlink" x="0px" y="0px"
	 viewBox="0 0 24 24" style="enable-background:new 0 0 24 24;" xml:space="preserve">
<style type="text/css">
	.st0{fill:#FFFFFF;}
</style>
<path class="st0" d="M19.8,22.6l-3-3c-0.4,0.3-0.9,0.5-1.3,0.7c-0.5,0.2-0.9,0.3-1.4,0.5v-2.1c0.2-0.1,0.5-0.2,0.7-0.2
	c0.2-0.1,0.4-0.2,0.6-0.3L12,14.8V20l-5-5H3V9h3.2L1.4,4.2l1.4-1.4l18.4,18.4L19.8,22.6z M19.6,16.8l-1.5-1.4
	c0.3-0.5,0.5-1.1,0.6-1.6c0.1-0.6,0.2-1.1,0.2-1.8c0-1.6-0.5-3-1.4-4.2c-0.9-1.2-2.1-2.1-3.6-2.5v-2c2.1,0.5,3.8,1.5,5.1,3.1
	C20.4,8,21,9.9,21,12c0,0.9-0.1,1.7-0.4,2.6S20.1,16.1,19.6,16.8z M16.2,13.4L14,11.2V7.9c0.8,0.4,1.4,0.9,1.8,1.6
	c0.4,0.7,0.7,1.5,0.7,2.4c0,0.2,0,0.5-0.1,0.7C16.4,13,16.3,13.2,16.2,13.4z M12,9.2L9.4,6.6L12,4V9.2z M10,15.1v-2.3L8.2,11H5v2
	h2.8L10,15.1z"/>
</svg>
